<svg width="20" height="20" viewBox="0 0 20 20" fill="none" xmlns="http://www.w3.org/2000/svg">
<rect x="6.10352e-05" width="20" height="20" rx="10" fill="#F5D64B"/>
<path d="M14.5177 8.38253C14.4481 8.24619 14.308 8.16037 14.1549 8.16037H10.0765L11.8292 4.58663C11.891 4.46047 11.8835 4.31113 11.8092 4.19187C11.7348 4.0725 11.6041 4.00006 11.4636 4.00006H9.37465C9.2194 4.00006 9.07773 4.0883 9.00916 4.22756L6.04189 10.2599C5.97982 10.3862 5.98719 10.5355 6.06157 10.6549C6.13595 10.7743 6.26666 10.8469 6.40738 10.8469H10.2554L7.74542 16.7375C7.66416 16.9281 7.73912 17.1495 7.91958 17.2516C7.98271 17.2873 8.05165 17.3045 8.11992 17.3045C8.24676 17.3045 8.37087 17.2452 8.45001 17.1361L14.4851 8.80677C14.5747 8.68265 14.5875 8.51885 14.5179 8.38252L14.5177 8.38253Z" fill="white"/>
</svg>
