<svg width="20" height="20" viewBox="0 0 20 20" fill="none" xmlns="http://www.w3.org/2000/svg">
<rect width="20" height="20" rx="10" fill="#90C12D"/>
<path d="M15.4336 14.5328C15.0048 14.5591 14.5881 14.3847 14.3059 14.0607C14.1638 14.2646 14.01 14.4599 13.8454 14.6459C14.3177 14.9895 14.9182 15.1054 15.4845 14.9623C15.7385 14.8935 15.8943 14.7116 15.8516 14.6345C15.809 14.5574 15.6139 14.5295 15.4336 14.5329L15.4336 14.5328Z" fill="white"/>
<path d="M17.1236 10.7906C17.0466 10.7415 16.8761 10.8168 16.7221 10.9103L16.722 10.9102C16.3697 11.1448 15.9295 11.2052 15.5272 11.0742C15.4845 11.3233 15.4288 11.566 15.3632 11.8069C15.9502 11.8726 16.5358 11.6724 16.9597 11.261C17.1516 11.0726 17.1925 10.8382 17.1236 10.7906Z" fill="white"/>
<path d="M15.6484 8.77947C16.1313 8.37634 16.394 7.76804 16.3566 7.14034C16.337 6.87805 16.1927 6.69122 16.101 6.71911C16.0092 6.74701 15.9584 6.9224 15.9272 7.09939V7.09928C15.882 7.44434 15.7095 7.76002 15.4435 7.98447C15.5056 8.25979 15.5527 8.53832 15.5845 8.81879C15.607 8.80758 15.6284 8.79445 15.6484 8.77947Z" fill="white"/>
<path d="M4.71716 14.5328C4.53685 14.5328 4.35322 14.5509 4.31069 14.6328C4.26804 14.7147 4.42377 14.8951 4.67782 14.9606V14.9607C5.19556 15.0909 5.74402 15.0052 6.19724 14.723C6.03408 14.5476 5.88077 14.3631 5.73829 14.1706C5.46079 14.4243 5.09241 14.555 4.71713 14.5328L4.71716 14.5328Z" fill="white"/>
<path d="M4.45139 11.1249C4.09821 11.1865 3.73473 11.1096 3.43676 10.9101C3.28264 10.815 3.10896 10.7461 3.0352 10.7904C2.96146 10.8347 2.99907 11.0724 3.19093 11.2608C3.57007 11.6346 4.0847 11.8387 4.61695 11.8263C4.54652 11.5969 4.49243 11.3642 4.45139 11.1249Z" fill="white"/>
<path d="M4.55969 7.8402C4.38075 7.63165 4.26676 7.37518 4.23189 7.10262C4.2024 6.92391 4.14671 6.74693 4.0581 6.72234C3.96961 6.69776 3.82211 6.8863 3.80244 7.14357C3.76837 7.71811 3.98756 8.27881 4.40237 8.67786C4.43941 8.39602 4.49201 8.11634 4.5597 7.84023L4.55969 7.8402Z" fill="white"/>
<path d="M7.65268 3.60952C7.56418 3.49644 7.50759 3.36175 7.48883 3.2194C7.47077 3.11776 7.43967 3.01611 7.3905 3.00136C7.34134 2.98661 7.25604 3.09318 7.24461 3.24227V3.24239C7.23329 3.4291 7.26942 3.61582 7.34945 3.78491C7.4527 3.7226 7.54944 3.6652 7.65268 3.60952Z" fill="white"/>
<path d="M12.9079 3.244C12.8964 3.09479 12.8111 2.98834 12.762 3.00309C12.7128 3.01784 12.68 3.11948 12.6636 3.22113V3.22101C12.64 3.39492 12.5599 3.55613 12.4358 3.67997C12.5451 3.74229 12.6516 3.80837 12.7555 3.87835H12.7553C12.8682 3.68683 12.9214 3.46592 12.9079 3.244Z" fill="white"/>
<path d="M14.7191 6.74344C13.8225 4.70435 12.0424 3.31267 9.982 3.31267C7.92152 3.31267 6.14145 4.70426 5.24315 6.74344C6.14148 8.16784 7.9248 9.13821 9.982 9.13821C12.0392 9.13821 13.8226 8.16784 14.7191 6.74344Z" fill="white"/>
<path d="M14.8535 7.07624C13.8896 8.46465 12.1767 9.34481 10.2803 9.42998V16.1504C13.098 15.9636 15.3352 13.164 15.3352 9.73644C15.3373 8.82781 15.174 7.92637 14.8533 7.07616L14.8535 7.07624ZM12.1473 13.9196C11.9691 13.9196 11.7981 13.8489 11.6722 13.7229C11.546 13.5969 11.4753 13.4259 11.4753 13.2477C11.4753 13.0694 11.546 12.8985 11.6722 12.7724C11.7982 12.6464 11.9691 12.5756 12.1473 12.5756C12.3256 12.5756 12.4965 12.6464 12.6225 12.7724C12.7485 12.8985 12.8193 13.0694 12.8193 13.2477C12.8193 13.4259 12.7485 13.5969 12.6225 13.7229C12.4965 13.8489 12.3256 13.9196 12.1473 13.9196ZM13.1309 11.8084L13.1308 11.8085C12.856 11.8085 12.5926 11.6993 12.3983 11.5051C12.2041 11.3108 12.0949 11.0473 12.0949 10.7725C12.0949 10.4978 12.2041 10.2343 12.3983 10.0401C12.5926 9.84572 12.856 9.73664 13.1308 9.73664C13.4055 9.73664 13.6691 9.84572 13.8633 10.0401C14.0576 10.2343 14.1667 10.4978 14.1667 10.7725C14.1667 11.0476 14.0573 11.3113 13.8627 11.5057C13.6681 11.7 13.4041 11.8089 13.1291 11.8085L13.1309 11.8084Z" fill="white"/>
<path d="M5.10879 7.07624C4.78875 7.92657 4.62595 8.82801 4.62847 9.73653C4.62847 13.2853 7.02485 16.1602 9.98171 16.1602V9.43973C7.96733 9.43813 6.12155 8.5366 5.10879 7.07616V7.07624ZM8.78543 13.3966C8.78543 13.5748 8.71454 13.7458 8.58854 13.8717C8.46254 13.9979 8.2916 14.0686 8.11337 14.0686C7.93514 14.0686 7.76418 13.9979 7.6382 13.8717C7.51208 13.7457 7.44131 13.5748 7.44131 13.3966C7.44131 13.2183 7.51208 13.0474 7.6382 12.9214C7.7642 12.7954 7.93514 12.7245 8.11337 12.7245C8.2916 12.7245 8.46256 12.7954 8.58854 12.9214C8.71454 13.0474 8.78543 13.2183 8.78543 13.3966ZM7.12493 9.73633C7.39968 9.73633 7.66324 9.8454 7.85748 10.0398C8.05173 10.234 8.16092 10.4975 8.16092 10.7722C8.16092 11.047 8.05173 11.3105 7.85748 11.5047C7.66322 11.699 7.39966 11.8082 7.12493 11.8082C6.8502 11.8082 6.58674 11.699 6.3925 11.5047C6.19813 11.3105 6.08906 11.0469 6.08906 10.7722C6.08906 10.4975 6.19813 10.234 6.3925 10.0398C6.58676 9.8454 6.8502 9.73633 7.12493 9.73633Z" fill="white"/>
</svg>
