<svg width="20" height="20" viewBox="0 0 20 20" fill="none" xmlns="http://www.w3.org/2000/svg">
<rect x="6.10352e-05" width="20" height="20" rx="10" fill="#0969C1"/>
<path fill-rule="evenodd" clip-rule="evenodd" d="M5.94852 11.1074L3.96103 8.66121C3.04367 11.1292 3.00006 12.6362 3.00006 12.6362L4.09215 11.3694C5.86131 20.4988 20.6259 15.9341 14.9251 9.31642C14.1389 8.37725 13.156 8.44282 13.156 8.44282C14.6193 8.07158 14.5757 6.97949 14.5757 6.97949C9.81444 6.97949 7.54299 7.89686 7.54299 7.89686L7.76146 9.36019L8.50407 9.53491L7.97992 10.1464C12.3481 10.212 13.7239 12.68 12.3699 14.2526C9.88002 17.1356 4.55061 14.2964 4.72536 10.7579L5.9484 11.1073L5.94852 11.1074ZM11.496 7.72207C10.6879 8.85777 9.90155 8.0279 9.90155 8.0279L11.496 7.72207Z" fill="white"/>
<path fill-rule="evenodd" clip-rule="evenodd" d="M5.46788 8.22455C8.65659 6.80483 11.9109 6.63011 15.3181 6.5865C15.3181 6.5865 15.4492 7.78773 14.4007 8.31189C14.4007 8.31189 16.6503 9.5787 16.5849 13.2261C16.5849 13.2261 19.6644 3.55063 9.0497 4.07489C9.0497 4.07489 10.3165 3.85643 9.9015 2.00003C9.9015 2.00003 5.3804 4.7739 3.89517 6.52113L4.92169 7.70056L5.55502 7.48209L5.46766 8.2247L5.46788 8.22455ZM7.19327 4.51148C7.19327 4.51148 7.47716 5.53799 6.12302 5.38507L7.19327 4.51148Z" fill="white"/>
</svg>
