<svg width="20" height="20" viewBox="0 0 20 20" fill="none" xmlns="http://www.w3.org/2000/svg">
<rect x="6.10352e-05" width="20" height="20" rx="10" fill="#CF4068"/>
<path d="M10.7309 17.0062C12.5829 11.8678 7.50419 10.267 7.50419 10.267C6.76365 10.0292 6.76365 9.47332 6.76365 9.47332L6.52859 7.69338H8.0382C9.41856 7.69338 9.17017 5.9633 9.17017 5.9633H5.06522C5.06522 5.9633 4.62232 5.9633 4.54465 6.41741L4.08178 10.1831C4.08178 10.1831 3.14014 15.5304 7.64956 16.7997C7.64967 16.7997 10.4927 17.6672 10.731 17.006L10.7309 17.0062Z" fill="white"/>
<path d="M12.5502 8.47851C12.5502 8.74801 12.3317 8.96636 12.0623 8.96636H11.2312C10.9618 8.96636 10.7435 8.74812 10.7435 8.47851V4.1628C10.7435 3.89364 10.9618 3.67494 11.2312 3.67494H12.0623C12.3317 3.67494 12.5502 3.89342 12.5502 4.1628V8.47851Z" fill="white"/>
<path d="M14.672 8.47848C14.672 8.74798 14.4539 8.96634 14.1844 8.96634H13.3535C13.0839 8.96634 12.8656 8.74809 12.8656 8.47848V4.48084C12.8656 4.21145 13.0838 3.99286 13.3535 3.99286H14.1844C14.4539 3.99286 14.672 4.21145 14.672 4.48084V8.47848Z" fill="white"/>
<path d="M8.30595 8.47849V8.15118C8.21954 8.16309 8.13056 8.1694 8.03808 8.1694H7.07145L7.17654 8.96624H7.81808C8.08736 8.96635 8.30595 8.74798 8.30595 8.47849Z" fill="white"/>
<path d="M8.30593 5.48707V4.20258C8.30593 3.93319 8.08733 3.71472 7.81807 3.71472H6.98688C6.71749 3.71472 6.49902 3.9332 6.49902 4.20258V5.48707H8.30593Z" fill="white"/>
<path d="M9.17017 5.48707H9.58261L9.64158 5.89553C9.65781 6.00833 9.78439 7.0185 9.22179 7.66752C9.05959 7.85482 8.85664 7.99108 8.62183 8.07434V8.47826C8.62183 8.74776 8.84007 8.96611 9.10945 8.96611H9.94039C10.2098 8.96611 10.4279 8.74787 10.4279 8.47826V3.48786C10.4279 3.21835 10.2098 3 9.94039 3H9.10945C8.84006 3 8.62183 3.21825 8.62183 3.48786V5.4871L9.17017 5.48707Z" fill="white"/>
<path d="M14.2018 9.44257H13.3708C13.123 9.44257 12.8964 9.34846 12.7254 9.19362C12.5545 9.34834 12.3282 9.44257 12.0799 9.44257H11.2491C11.0012 9.44257 10.7745 9.34846 10.6035 9.19362C10.4325 9.34834 10.2064 9.44257 9.95806 9.44257H9.12711C8.87898 9.44257 8.65268 9.34846 8.48172 9.19362C8.31065 9.34834 8.08411 9.44257 7.8362 9.44257H7.24255L7.24056 9.46488C7.24979 9.52116 7.30619 9.70309 7.64867 9.81379C7.76754 9.85127 10.0767 10.6079 11.1196 12.7139C11.7363 13.959 11.7764 15.3975 11.2401 16.9917L13.381 16.3678C14.5491 16.0075 14.576 14.3622 14.576 14.3622L14.5762 9.36674C14.461 9.41531 14.3344 9.4424 14.2019 9.4424L14.2018 9.44257Z" fill="white"/>
</svg>
