<svg width="20" height="20" viewBox="0 0 20 20" fill="none" xmlns="http://www.w3.org/2000/svg">
<rect width="20" height="20" rx="10" fill="#FF9D53"/>
<path fill-rule="evenodd" clip-rule="evenodd" d="M10.9689 2.0018C10.9596 2.00394 10.9506 2.00772 10.9426 2.01289C9.41244 2.91038 8.58787 3.84767 8.17236 4.7647C7.75686 5.68171 7.75421 6.57153 7.86103 7.3606C7.96783 8.14967 8.17828 8.84223 8.19341 9.36036C8.20097 9.61944 8.16394 9.83468 8.05097 10.0009C7.93799 10.1672 7.74315 10.2939 7.41782 10.3798C7.41606 10.3815 7.41417 10.3834 7.41253 10.3853C6.67941 10.6433 5.96427 10.4711 5.58681 9.88391C5.20948 9.29675 5.15596 8.26361 5.82422 6.76434C5.85911 6.69293 5.75785 6.60388 5.69764 6.65288C3.30945 8.54382 2.57859 11.2606 3.22292 13.4602C3.86725 15.6598 5.89374 17.3335 8.96366 17.1536C9.02109 17.1503 9.06102 17.0723 9.0323 17.0198C8.61883 16.234 8.54351 15.5074 8.78432 14.9141C9.00623 14.3675 9.5138 13.9273 10.304 13.6551C9.89971 14.4106 9.86808 15.1701 10.151 15.7887C10.641 16.5413 11.3452 17.0085 12.003 17.1534C14.1387 16.9731 15.5364 15.8254 15.9024 13.9837C16.2676 12.1466 15.6193 9.64066 13.7653 6.69758C13.7607 6.69015 13.7594 6.68272 13.7548 6.67529C13.707 6.61207 13.5877 6.67491 13.607 6.75325C13.8147 7.36724 13.8657 7.85955 13.8075 8.23501C13.7493 8.61048 13.5854 8.87267 13.359 9.03717C12.9064 9.36601 12.1672 9.30821 11.4911 8.87558C10.1389 8.01045 9.04775 5.67301 11.0585 2.13532C11.0927 2.07625 11.0329 1.98708 10.9688 2.00157L10.9689 2.0018Z" fill="white"/>
</svg>
