<svg width="20" height="20" viewBox="0 0 20 20" fill="none" xmlns="http://www.w3.org/2000/svg">
<rect x="6.10352e-05" width="20" height="20" rx="10" fill="#90A8DE"/>
<path d="M12.6626 9.26817C12.6634 9.27186 13.342 9.1897 13.6867 9.40401C13.1681 10.11 12.5645 10.7815 11.9508 11.3879C11.9406 11.3803 11.929 11.3734 11.9142 11.3683C11.9148 11.3696 10.9581 10.9776 10.4321 11.0923C10.4323 11.0934 11.0551 11.5395 11.3357 11.9698C11.3139 11.9894 11.2923 12.009 11.2708 12.0284C10.7863 12.4625 10.3358 12.8206 9.92576 13.1123C9.46302 12.8486 8.8942 12.7558 8.8953 12.754C9.20214 12.9459 9.42467 13.1498 9.58649 13.3445C9.04304 13.7006 8.5749 13.9284 8.16634 14.0573C7.86182 13.8107 7.46855 13.6287 7.46905 13.6277C7.66818 13.7899 7.81234 13.9583 7.91816 14.1258C7.128 14.3164 6.54587 14.1076 6.2706 13.9854C6.92638 12.4162 8.92678 11.14 11.0065 9.58502C13.053 8.0106 15.1788 6.15738 15.3289 3C15.4556 3.66454 15.5929 4.97078 15.2215 6.33082C14.9237 6.56691 14.607 6.78249 14.2757 6.97975C14.4906 7.06507 14.7058 7.15049 14.921 7.23599C14.6788 7.84084 14.3482 8.44551 13.9515 9.02917C13.6525 8.9706 13.1942 8.97386 12.6627 9.26827L12.6626 9.26817ZM15.0554 3.1938C14.8433 3.85138 14.3273 4.87087 13.3674 5.76765C13.3475 6.04302 13.3167 6.31452 13.2764 6.58363C13.0805 6.50602 12.8846 6.42858 12.6887 6.35105C12.1512 6.77041 11.5358 7.15734 10.8956 7.5079C11.0524 7.67693 11.1632 7.94774 10.8988 8.29747C10.8991 8.29652 10.8444 7.90599 10.5035 7.71767C9.71244 8.13128 8.90717 8.49351 8.20103 8.84297C8.30343 8.94965 8.78504 9.49394 8.66584 9.81578C8.66592 9.81458 8.09761 9.40947 7.56121 9.17467C7.53291 9.19019 7.50487 9.20563 7.477 9.22141C6.9826 9.49807 6.60065 9.767 6.31413 10.0434C6.59824 10.4043 6.71084 10.8214 6.71196 10.8226C6.51317 10.5844 6.30505 10.4031 6.10841 10.2606C5.77317 10.6519 5.6148 11.061 5.56376 11.4721C5.79085 11.7604 5.9681 12.105 5.9686 12.1057C5.82513 11.9288 5.68261 11.7969 5.54608 11.6952C5.52018 12.4555 5.80714 13.2 5.97837 13.6025C6.66794 12.1356 8.62248 10.927 10.6655 9.44779C12.678 7.95066 14.7787 6.18328 15.0554 3.19362L15.0554 3.1938ZM4.00012 15.2146C4.9094 15.3464 5.53311 15.5027 6.27036 13.9851L5.97835 13.6025C5.97852 13.6023 5.44373 15.0923 4.00012 15.2146Z" fill="white"/>
</svg>
