<svg width="20" height="20" viewBox="0 0 20 20" fill="none" xmlns="http://www.w3.org/2000/svg">
<rect x="6.10352e-05" width="20" height="20" rx="10" fill="#5369AC"/>
<path d="M10.3799 3.00006C8.95306 3.00006 7.58463 3.5668 6.57583 4.57577C5.56685 5.58474 5 6.95317 5 8.37988V16.4498L7.01748 13.7599L8.36251 16.4498L10.38 13.7599L12.3975 16.4498L13.7425 13.7599L15.76 16.4498V8.37988C15.76 7.43552 15.5114 6.50774 15.0391 5.68994C14.5669 4.87214 13.8878 4.19294 13.0699 3.72076C12.2521 3.24858 11.3243 3 10.38 3L10.3799 3.00006ZM9.03491 9.72491C9.03491 9.96516 8.90679 10.1872 8.69874 10.3073C8.49069 10.4274 8.23423 10.4274 8.02617 10.3073C7.81811 10.1872 7.69 9.96516 7.69 9.72491V8.37988C7.69 8.13963 7.81812 7.91762 8.02617 7.79749C8.23422 7.67736 8.49068 7.67736 8.69874 7.79749C8.9068 7.91762 9.03491 8.13963 9.03491 8.37988V9.72491ZM13.0699 9.72491C13.0699 9.96516 12.9418 10.1872 12.7337 10.3073C12.5257 10.4274 12.2692 10.4274 12.0611 10.3073C11.8531 10.1872 11.725 9.96516 11.725 9.72491V8.37988C11.725 8.13963 11.8531 7.91762 12.0611 7.79749C12.2692 7.67736 12.5256 7.67736 12.7337 7.79749C12.9418 7.91762 13.0699 8.13963 13.0699 8.37988V9.72491Z" fill="white"/>
</svg>
