<svg width="20" height="20" viewBox="0 0 20 20" fill="none" xmlns="http://www.w3.org/2000/svg">
<rect x="6.10352e-05" width="20" height="20" rx="10" fill="#5FBA57"/>
<path d="M6.99912 2.01259C6.99912 2.01259 12.9132 4.01547 14.6203 9.59814C15.5091 12.4853 12.9463 14.157 12.9463 14.157C12.9463 14.157 12.9594 11.9568 11.93 9.66706C10.5735 6.64224 9.43782 6.00893 9.43782 6.00893C9.43782 6.00893 10.0466 6.6932 11.595 10.3011C12.5342 12.4895 12.2003 15.0843 12.0146 15.7126C11.8093 16.4311 10.9114 17.902 10.9114 17.902C10.9114 17.902 10.6974 18.1106 10.376 17.6882C9.78405 16.8799 10.3361 16.8064 10.3361 16.8064C10.3361 16.8064 11.4796 16.4791 11.6115 15.3719C11.6535 14.9803 11.6731 14.645 11.6617 14.3464C10.6756 14.1159 8.39057 13.3338 7.09616 10.6442C4.86557 6.04497 6.99896 2.01264 6.99896 2.01264L6.99912 2.01259Z" fill="white"/>
</svg>
