<svg width="20" height="20" viewBox="0 0 20 20" fill="none" xmlns="http://www.w3.org/2000/svg">
<rect width="20" height="20" rx="10" fill="#D87B4A"/>
<path d="M9.78448 4.38081L12.5754 3.99994L14.9421 4.74146L12.6723 5.65133L11.094 5.31192L8.67004 5.47089L9.78448 4.38081Z" fill="#F6F8FC"/>
<path d="M8.47456 10.5521L11.4715 10.7278L12.2581 14.2655H7.37105L8.47456 10.5521Z" fill="#F6F8FC"/>
<path d="M11.5457 10.526L8.42705 10.3434L5.84783 9.00744L7.84254 7.71133L11.0489 8.32606L12.7837 9.37078L13.5834 10.0297L11.5457 10.526Z" fill="#F6F8FC"/>
<path d="M11.1892 8.17024V5.54285L12.5822 5.84233L12.7317 9.0991L11.1892 8.17024Z" fill="#F6F8FC"/>
<path d="M8.47802 5.68964L10.9835 5.52551V8.10381L7.95119 7.52228L8.47802 5.68964Z" fill="#F6F8FC"/>
<path d="M5.70293 9.164L8.27619 10.4971L7.15617 14.2656H4.00002L5.70293 9.164Z" fill="#F6F8FC"/>
<path d="M12.4692 14.2657L11.6775 10.7058L13.7254 10.2066L14.4398 14.2657L12.4692 14.2657Z" fill="#F6F8FC"/>
<path d="M14.6485 14.2657L13.9088 10.063L13.8074 10.0807L13.873 10.0013L12.944 9.23596L12.7874 5.8268L15.1687 4.87216L16.829 14.2656L14.6485 14.2657Z" fill="#F6F8FC"/>
</svg>
