<svg width="20" height="20" viewBox="0 0 20 20" fill="none" xmlns="http://www.w3.org/2000/svg">
<rect x="6.10352e-05" width="20" height="20" rx="10" fill="#74CEC1"/>
<path d="M16.4055 11.911C16.6073 11.9048 16.765 11.7574 16.7579 11.5816C16.751 11.4058 16.5815 11.2684 16.38 11.2743L13.7681 11.3538C13.5317 11.3503 13.2988 11.2992 13.0886 11.2044L12.504 10.9116C12.3193 10.8042 12.2028 10.6275 12.1898 10.4343V9.5814C12.2028 9.38804 12.3193 9.21133 12.504 9.10389L13.0886 8.81108C13.2988 8.71628 13.5314 8.665 13.7679 8.66167L16.3797 8.74115C16.5813 8.74736 16.751 8.60972 16.7579 8.43413C16.765 8.2583 16.6073 8.11068 16.4055 8.10468L14.9444 8.06006C14.7436 8.06006 14.7217 7.97726 14.897 7.88824L16.8002 6.93342C16.8863 6.89368 16.9503 6.82553 16.9786 6.74428C17.0066 6.66303 16.9962 6.57534 16.9498 6.50053C16.8494 6.34912 16.6277 6.29652 16.4529 6.38287L14.5497 7.33769C14.3744 7.42671 14.3086 7.36943 14.4037 7.2167L15.0794 6.10605C15.1737 5.95132 15.1067 5.75929 14.9296 5.67627C14.752 5.59413 14.5316 5.65251 14.4365 5.8068L13.2091 7.81498C13.0909 7.9948 12.9242 8.14664 12.7232 8.25743L12.1387 8.55024C11.9389 8.63371 11.7065 8.63371 11.5067 8.55024L10.6737 8.13022C10.4862 8.02477 10.3682 7.84695 10.3562 7.65271V7.07042C10.3669 6.86352 10.4332 6.66194 10.5496 6.48148L11.934 4.55275C11.9855 4.48104 12.0023 4.39468 11.9804 4.3121C11.9585 4.22974 11.8999 4.15826 11.8173 4.11364C11.735 4.06879 11.6356 4.05436 11.5411 4.07345C11.4463 4.09255 11.3645 4.14361 11.3133 4.21553L10.5499 5.2818C10.4439 5.42809 10.3562 5.40589 10.3562 5.23096V3.31803C10.3562 3.23367 10.3178 3.15286 10.2492 3.09315C10.1807 3.03343 10.0877 2.99991 9.99084 2.99991C9.78902 2.99991 9.62543 3.14243 9.62543 3.31803V5.22767C9.62543 5.4026 9.53777 5.42503 9.43177 5.27851L8.66836 4.21224C8.61663 4.14076 8.53433 4.09059 8.43979 4.07216C8.34526 4.05351 8.24613 4.06861 8.16434 4.11367C8.08178 4.15829 8.02317 4.22978 8.00126 4.31214C7.97935 4.39472 7.99591 4.4813 8.04738 4.553L9.4318 6.48174C9.54825 6.66222 9.61475 6.86357 9.62545 7.07045V7.6561C9.61348 7.85035 9.49524 8.02772 9.3077 8.13339L8.47469 8.5534C8.27492 8.63688 8.04253 8.63688 7.84276 8.5534L7.25822 8.26059C7.05717 8.14982 6.89078 7.99797 6.77255 7.81838L5.54514 5.8102C5.4501 5.65591 5.22969 5.59752 5.05208 5.67966C4.87499 5.76246 4.80797 5.95449 4.90225 6.10923L5.57799 7.21987C5.67303 7.37261 5.60729 7.42988 5.43198 7.34086L3.52877 6.38604C3.35932 6.30945 3.15088 6.3594 3.05023 6.50059C3.00106 6.57363 2.98729 6.66065 3.01201 6.74257C3.03673 6.82426 3.09763 6.89419 3.18172 6.93659L5.08493 7.89141C5.26024 7.98043 5.23833 8.0568 5.03753 8.06324L3.57647 8.10786C3.47964 8.11074 3.38765 8.14715 3.32166 8.20886C3.25566 8.2708 3.22024 8.35294 3.22381 8.43729C3.23069 8.61312 3.40014 8.75053 3.6017 8.74431L6.21352 8.66484C6.44999 8.66839 6.68288 8.71945 6.8931 8.81447L7.47764 9.10728C7.66238 9.2145 7.77883 9.39143 7.79182 9.58457V10.4248C7.77883 10.6179 7.66238 10.7947 7.47764 10.9021L6.8931 11.1949C6.68288 11.2897 6.45023 11.341 6.21378 11.3445L3.60169 11.2744C3.40014 11.2684 3.23069 11.4058 3.2238 11.5816C3.21667 11.7575 3.3744 11.9049 3.57621 11.9111L5.03727 11.9557C5.23806 11.9557 5.25998 12.0385 5.08467 12.1275L3.18146 13.0823C3.01736 13.1702 2.96003 13.3538 3.05023 13.5023C3.15038 13.6538 3.37231 13.7064 3.54686 13.62L5.45007 12.6652C5.62538 12.5762 5.69112 12.6334 5.59608 12.7862L4.92034 13.8968C4.82606 14.0516 4.89308 14.2436 5.07017 14.3266C5.24778 14.4087 5.46819 14.3504 5.56349 14.1961L6.7909 12.1879C6.90913 12.0081 7.07578 11.8562 7.27657 11.7454L7.8611 11.4526C8.06088 11.3692 8.29327 11.3692 8.49304 11.4526L9.32605 11.8727C9.51359 11.9781 9.63157 12.1559 9.6438 12.3502V12.9358C9.6331 13.1425 9.56659 13.3441 9.45014 13.5245L8.06572 15.4533C7.95743 15.5978 8.00126 15.7911 8.16433 15.8893C8.24664 15.9341 8.34602 15.9485 8.44055 15.9294C8.53534 15.9103 8.61714 15.8593 8.66836 15.7874L9.43177 14.7211C9.53777 14.5748 9.62543 14.597 9.62543 14.7719V16.6816C9.62543 16.7659 9.6639 16.847 9.73245 16.9067C9.80099 16.9664 9.894 16.9999 9.99082 16.9999C10.0876 16.9999 10.1807 16.9664 10.2492 16.9067C10.3177 16.847 10.3562 16.7659 10.3562 16.6816V14.7753C10.3562 14.6004 10.4439 14.5779 10.5499 14.7244L11.3133 15.7907C11.365 15.8622 11.4473 15.9124 11.5419 15.9308C11.6364 15.9494 11.7355 15.9343 11.8173 15.8893C11.8999 15.8447 11.9585 15.7732 11.9804 15.6908C12.0023 15.6082 11.9857 15.5217 11.9343 15.4499L10.5499 13.5212C10.4334 13.3407 10.3669 13.1394 10.3562 12.9325V12.3471C10.3682 12.1528 10.4864 11.9752 10.674 11.8696L11.507 11.4496C11.7067 11.3661 11.9391 11.3661 12.1389 11.4496L12.7234 11.7424C12.9245 11.8531 13.0909 12.005 13.2091 12.1846L14.4365 14.1928C14.5316 14.347 14.752 14.4054 14.9296 14.3233C15.1067 14.2405 15.1737 14.0485 15.0794 13.8937L14.4037 12.7831C14.3086 12.6304 14.3744 12.5731 14.5497 12.6621L16.4529 13.6169C16.6267 13.7037 16.8484 13.6527 16.9498 13.5024C16.9989 13.4293 17.0127 13.3423 16.988 13.2604C16.9633 13.1787 16.9021 13.1088 16.8183 13.0664L14.9151 12.1115C14.7398 12.0225 14.7617 11.9462 14.9625 11.9397L16.4055 11.911ZM11.4519 10.0523C11.4519 10.2272 11.3094 10.3005 11.1341 10.2114L11.0319 10.1606C10.9545 10.1368 10.9025 10.0729 10.9025 10.0014C10.9025 9.92994 10.9545 9.86601 11.0319 9.84225L11.1341 9.79141C11.3094 9.70239 11.4519 9.77543 11.4519 9.95059V10.0523ZM10.7761 8.91939C10.9514 9.00841 10.9514 9.15182 10.7761 9.23774L10.674 9.2919C10.4986 9.37781 10.3562 9.2919 10.3562 9.13273V9.02772C10.3562 8.85279 10.4986 8.77953 10.674 8.86855L10.7761 8.91939ZM9.31507 8.86855C9.49038 8.77953 9.63282 8.86855 9.63282 9.02773V9.13273C9.63282 9.30766 9.49038 9.37782 9.31507 9.2919L9.21289 9.23774C9.03758 9.15183 9.03758 9.00864 9.21289 8.91939L9.31507 8.86855ZM8.52974 9.95056C8.52974 9.77563 8.67218 9.70237 8.84749 9.79139L8.94967 9.84222C9.02713 9.86598 9.07911 9.92991 9.07911 10.0014C9.07911 10.0729 9.02713 10.1368 8.94967 10.1606L8.84749 10.2114C8.67218 10.3004 8.52974 10.2274 8.52974 10.0522V9.95056ZM9.21291 11.0837C9.0376 10.9946 9.0376 10.8512 9.21291 10.7653L9.31509 10.7111C9.4904 10.6252 9.63284 10.7111 9.63284 10.8703V10.9753C9.63284 11.1503 9.4904 11.2235 9.31509 11.1345L9.21291 11.0837ZM10.674 11.1345C10.4987 11.2235 10.3562 11.1345 10.3562 10.9753V10.8703C10.3562 10.6954 10.4987 10.6252 10.674 10.7111L10.7762 10.7653C10.9515 10.8512 10.9515 10.9944 10.7762 11.0837L10.674 11.1345Z" fill="#F6F8FC"/>
</svg>
