<svg width="20" height="20" viewBox="0 0 20 20" fill="none" xmlns="http://www.w3.org/2000/svg">
<rect x="6.10352e-05" y="0.00012207" width="20" height="20" rx="10" fill="#A866C8"/>
<path d="M11.0036 3.26583C11.0036 3.4128 10.5828 3.53184 10.0637 3.53184C9.54456 3.53184 9.12376 3.41279 9.12376 3.26583C9.12376 3.11897 9.54456 2.99994 10.0637 2.99994C10.5828 2.99994 11.0036 3.11898 11.0036 3.26583Z" fill="white" stroke="white" stroke-width="0.174857" stroke-miterlimit="10"/>
<path d="M9.12386 3.26584V4.64654C9.12386 4.64654 9.88886 5.17113 11.0036 4.64654V3.26584" stroke="white" stroke-width="0.174857" stroke-miterlimit="10"/>
<path d="M9.85897 4.26407C9.85897 4.47435 9.53099 4.47435 9.53099 4.26407C9.53099 4.05378 9.85897 4.05378 9.85897 4.26407Z" fill="white" stroke="white" stroke-width="0.174857" stroke-miterlimit="10"/>
<path d="M10.1568 4.01247C10.1568 4.17664 9.89307 4.17664 9.89307 4.01247C9.89307 3.8483 10.1568 3.8483 10.1568 4.01247Z" fill="white"/>
<path d="M10.1855 4.25724C10.1855 4.34798 10.0533 4.34798 10.0533 4.25724C10.0533 4.16649 10.1855 4.16649 10.1855 4.25724Z" fill="white"/>
<path d="M11.0036 4.25711C11.0036 4.25711 11.6884 4.47897 11.9215 4.87965V5.54012C11.9215 5.54012 10.2021 6.74959 8.27872 5.53415V4.87966C8.27872 4.87966 8.55292 4.40812 9.12386 4.25711" stroke="white" stroke-width="0.52457" stroke-miterlimit="10"/>
<path d="M8.60804 5.70892C8.60804 5.70892 8.98334 6.89704 9.00152 7.36358C9.00152 7.36358 9.25571 8.71415 7.83939 10.1872C7.83939 10.1872 2.46429 16.2279 10.091 16.2526" stroke="white" stroke-width="0.52457" stroke-miterlimit="10"/>
<path d="M11.6425 5.70892C11.6425 5.70892 11.25 6.89704 11.2309 7.36358C11.2309 7.36358 10.9648 8.71415 12.4468 10.1872C12.4468 10.1872 18.0703 16.2279 10.0909 16.2526" stroke="white" stroke-width="0.52457" stroke-miterlimit="10"/>
<path d="M14.3713 13.4222C14.3713 13.4222 13.6873 11.3362 12.564 10.3192C12.564 10.3192 8.81788 9.52102 7.72502 11.4007C7.72502 11.4007 5.12263 14.9928 7.56049 15.9069C7.56049 15.9069 9.96162 16.5861 12.2313 16.048C12.2313 16.0476 14.8102 15.4876 14.3713 13.4222ZM12.2451 11.9983C12.4138 12.4363 12.8442 12.6233 12.8442 12.6233C12.4031 12.7998 12.2451 13.1684 12.2451 13.1684C11.9723 12.6662 11.6184 12.6233 11.6184 12.6233C12.0377 12.447 12.2451 11.9983 12.2451 11.9983ZM11.6241 14.8569C11.1225 13.9458 10.4699 13.8679 10.4699 13.8679C11.2426 13.5482 11.6241 12.7343 11.6241 12.7343C11.9354 13.5291 12.7282 13.8679 12.7282 13.8679C11.9153 14.1878 11.6241 14.8569 11.6241 14.8569ZM12.8541 14.566C12.6557 14.1882 12.3984 14.1562 12.3984 14.1562C12.7033 14.0236 12.8541 13.6865 12.8541 13.6865C12.9768 14.0155 13.2899 14.1562 13.2899 14.1562C12.9686 14.2886 12.8541 14.566 12.8541 14.566Z" fill="white"/>
</svg>
