<svg width="20" height="20" viewBox="0 0 20 20" fill="none" xmlns="http://www.w3.org/2000/svg">
<rect x="6.10352e-05" y="0.00012207" width="20" height="20" rx="10" fill="#F86E74"/>
<path d="M10.6472 10.3509C10.4304 10.1851 10.1244 10.4146 10.2137 10.6696C10.2902 10.8864 10.456 11.1031 10.7747 11.2816C11.6927 11.7788 12.9166 11.0649 12.9677 9.96837C13.0059 8.87189 12.1262 6.80644 9.38499 7.64792C6.64381 8.48943 6.69481 12.9008 10.2265 13.9463C13.7582 14.9918 17.6086 11.4728 15.3009 6.80644C13.0697 2.3058 3.7624 3.03253 4.00464 10.3381C4.22138 16.9297 11.221 17.6819 14.7144 15.591C14.8929 15.4763 14.7782 15.1958 14.5741 15.2467C13.567 15.4635 11.884 15.7057 10.2265 15.387C8.16106 15.0045 6.19759 12.5693 6.45258 10.3253C6.70764 8.08142 8.09734 6.97217 9.35951 6.67893C10.9405 6.32194 12.9294 6.81918 13.5797 8.80813C14.2299 10.7716 12.2282 13.0283 10.354 11.9701C8.44153 10.8863 9.35951 8.84638 10.9277 9.01212C12.4959 9.1779 11.9222 10.6823 11.2209 10.5931C10.9915 10.5549 10.8003 10.4656 10.6472 10.3508L10.6472 10.3509Z" fill="white"/>
</svg>
