<svg width="20" height="20" viewBox="0 0 20 20" fill="none" xmlns="http://www.w3.org/2000/svg">
<rect x="6.10352e-05" y="0.00012207" width="20" height="20" rx="10" fill="#C8B98C"/>
<path d="M12.0147 4L15.7689 6.06208L14.6196 10.6013L11.7532 12.3186L9.08442 11.5526L6.5308 8.99244L12.0147 4ZM11.4593 4.01282L6.23701 8.7689L3.76634 6.95579L8.0501 4.35101L11.4593 4.01282ZM16.0304 6.624L17.7734 11.1378L16.3879 13.7426L14.9579 10.7228L16.0304 6.624ZM3.54913 7.24324L6.05172 9.07556L5.55375 14.3555L3 10.7036L3.54913 7.24324ZM6.3902 9.35648L8.77792 11.7506L9.60794 16.8773L5.88595 14.6939L6.3902 9.35648ZM14.6833 10.9845L16.158 14.0936L11.8485 17.1134L12.0081 12.587L14.6833 10.9845ZM9.18008 11.9549L11.6507 12.6634L11.4783 17.3304C10.9868 17.2537 9.99074 17.1133 9.99714 17.1069L9.18008 11.9549Z" fill="white"/>
</svg>
