<svg width="20" height="20" viewBox="0 0 20 20" fill="none" xmlns="http://www.w3.org/2000/svg">
<rect y="0.00012207" width="20" height="20" rx="10" fill="#538B9D"/>
<path d="M13.1792 4.00006H7.27244C6.84231 4.00006 6.45519 4.22947 6.24019 4.5879L3.28681 9.72047C3.0718 10.0932 3.0718 10.5377 3.28681 10.9104L6.24019 16.0287C6.4552 16.4014 6.84234 16.6165 7.27244 16.6165H13.1792C13.6093 16.6165 13.9965 16.3871 14.2115 16.0287L17.1648 10.9104C17.3798 10.5377 17.3798 10.0932 17.1648 9.72047L14.2115 4.60223C13.9964 4.22942 13.6093 4.00006 13.1792 4.00006ZM10.9427 13.3333C8.67747 13.8352 6.69899 11.8566 7.20078 9.59141C7.45879 8.44444 8.37645 7.52689 9.52332 7.26888C11.7742 6.78135 13.7527 8.75985 13.2509 11.0251C12.9928 12.1577 12.0752 13.0752 10.9427 13.3333L10.9427 13.3333Z" fill="white"/>
</svg>
