<svg width="20" height="20" viewBox="0 0 20 20" fill="none" xmlns="http://www.w3.org/2000/svg">
<rect x="6.10352e-05" y="0.00012207" width="20" height="20" rx="10" fill="#559CD9"/>
<path d="M13.5155 8.57848C12.3502 6.62377 10.7902 4.36827 9.83151 2.00006C8.87293 4.36821 7.31291 6.6238 6.1475 8.57848C5.33935 9.95053 4.66266 10.7776 4.66266 12.4504C4.66278 15.2884 6.97453 17.6 9.83133 17.6C12.6881 17.6 15 15.2883 15 12.4501C15 10.7773 14.3234 9.93147 13.5153 8.57818L13.5155 8.57848ZM9.60617 16.4537C7.61382 16.4537 5.97864 14.8373 5.97864 12.8262C5.97864 12.0555 6.16661 11.548 6.46739 11.0218C6.65524 13.5216 8.89196 15.8899 12.1248 15.4199C11.467 16.0589 10.5837 16.4536 9.60632 16.4536L9.60617 16.4537Z" fill="white"/>
</svg>
