<svg width="55" height="31" viewBox="0 0 55 31" fill="none" xmlns="http://www.w3.org/2000/svg">
<rect width="55" height="31" rx="5" fill="#90C12D"/>
<path d="M11.3004 21V9.36364H15.9595C16.8156 9.36364 17.5296 9.49053 18.1016 9.74432C18.6735 9.99811 19.1035 10.3504 19.3913 10.8011C19.6792 11.2481 19.8232 11.7633 19.8232 12.3466C19.8232 12.8011 19.7322 13.2008 19.5504 13.5455C19.3686 13.8864 19.1186 14.1667 18.8004 14.3864C18.486 14.6023 18.1262 14.7557 17.7209 14.8466V14.9602C18.1641 14.9792 18.5788 15.1042 18.9652 15.3352C19.3553 15.5663 19.6716 15.8902 19.9141 16.3068C20.1565 16.7197 20.2777 17.2121 20.2777 17.7841C20.2777 18.4015 20.1243 18.9527 19.8175 19.4375C19.5144 19.9186 19.0656 20.2992 18.4709 20.5795C17.8762 20.8598 17.1432 21 16.272 21H11.3004ZM13.7607 18.9886H15.7663C16.4519 18.9886 16.9519 18.858 17.2663 18.5966C17.5807 18.3314 17.7379 17.9792 17.7379 17.5398C17.7379 17.2178 17.6603 16.9337 17.505 16.6875C17.3497 16.4413 17.1281 16.2481 16.8402 16.108C16.5561 15.9678 16.2171 15.8977 15.8232 15.8977H13.7607V18.9886ZM13.7607 14.233H15.5845C15.9216 14.233 16.2209 14.1742 16.4822 14.0568C16.7474 13.9356 16.9557 13.7652 17.1072 13.5455C17.2625 13.3258 17.3402 13.0625 17.3402 12.7557C17.3402 12.3352 17.1906 11.9962 16.8913 11.7386C16.5959 11.4811 16.1754 11.3523 15.63 11.3523H13.7607V14.233ZM29.066 9.36364H31.5263V16.9205C31.5263 17.7689 31.3236 18.5114 30.9183 19.1477C30.5168 19.7841 29.9543 20.2803 29.2308 20.6364C28.5073 20.9886 27.6645 21.1648 26.7024 21.1648C25.7365 21.1648 24.8918 20.9886 24.1683 20.6364C23.4448 20.2803 22.8823 19.7841 22.4808 19.1477C22.0793 18.5114 21.8785 17.7689 21.8785 16.9205V9.36364H24.3388V16.7102C24.3388 17.1534 24.4354 17.5473 24.6285 17.892C24.8255 18.2367 25.102 18.5076 25.4581 18.7045C25.8142 18.9015 26.2289 19 26.7024 19C27.1797 19 27.5945 18.9015 27.9467 18.7045C28.3028 18.5076 28.5774 18.2367 28.7706 17.892C28.9676 17.5473 29.066 17.1534 29.066 16.7102V9.36364ZM41.2663 13.125C41.1868 12.8485 41.075 12.6042 40.9311 12.392C40.7872 12.1761 40.611 11.9943 40.4027 11.8466C40.1982 11.6951 39.9633 11.5795 39.6982 11.5C39.4368 11.4205 39.147 11.3807 38.8288 11.3807C38.2341 11.3807 37.7114 11.5284 37.2607 11.8239C36.8137 12.1193 36.4652 12.5492 36.2152 13.1136C35.9652 13.6742 35.8402 14.3598 35.8402 15.1705C35.8402 15.9811 35.9633 16.6705 36.2095 17.2386C36.4557 17.8068 36.8042 18.2405 37.255 18.5398C37.7057 18.8352 38.2379 18.983 38.8516 18.983C39.4084 18.983 39.8838 18.8845 40.2777 18.6875C40.6754 18.4867 40.9785 18.2045 41.1868 17.8409C41.3989 17.4773 41.505 17.0473 41.505 16.5511L42.005 16.625H39.005V14.7727H43.8743V16.2386C43.8743 17.2614 43.6584 18.1402 43.2266 18.875C42.7947 19.6061 42.2 20.1705 41.4425 20.5682C40.6849 20.9621 39.8175 21.1591 38.8402 21.1591C37.7493 21.1591 36.791 20.9186 35.9652 20.4375C35.1394 19.9527 34.4955 19.2652 34.0334 18.375C33.575 17.4811 33.3459 16.4205 33.3459 15.1932C33.3459 14.25 33.4822 13.4091 33.755 12.6705C34.0315 11.928 34.4178 11.2992 34.9141 10.7841C35.4103 10.2689 35.9879 9.87689 36.647 9.60795C37.3061 9.33901 38.0201 9.20455 38.7891 9.20455C39.4482 9.20455 40.0618 9.30114 40.63 9.49432C41.1982 9.68371 41.7019 9.95265 42.1413 10.3011C42.5845 10.6496 42.9463 11.0644 43.2266 11.5455C43.5069 12.0227 43.6868 12.5492 43.7663 13.125H41.2663Z" fill="white"/>
</svg>
