<svg width="63" height="31" viewBox="0 0 63 31" fill="none" xmlns="http://www.w3.org/2000/svg">
<rect width="63" height="31" rx="5" fill="#5A5366"/>
<path d="M14.3942 21H10.2692V9.36364H14.4283C15.5987 9.36364 16.6063 9.59659 17.451 10.0625C18.2957 10.5246 18.9453 11.1894 19.3999 12.0568C19.8582 12.9242 20.0874 13.9621 20.0874 15.1705C20.0874 16.3826 19.8582 17.4242 19.3999 18.2955C18.9453 19.1667 18.2919 19.8352 17.4396 20.3011C16.5911 20.767 15.576 21 14.3942 21ZM12.7294 18.892H14.2919C15.0192 18.892 15.6309 18.7633 16.1271 18.5057C16.6271 18.2443 17.0021 17.8409 17.2521 17.2955C17.5059 16.7462 17.6328 16.0379 17.6328 15.1705C17.6328 14.3106 17.5059 13.608 17.2521 13.0625C17.0021 12.517 16.629 12.1155 16.1328 11.858C15.6366 11.6004 15.0249 11.4716 14.2976 11.4716H12.7294V18.892ZM23.2592 21H20.6229L24.6399 9.36364H27.8104L31.8217 21H29.1854L26.2706 12.0227H26.1797L23.2592 21ZM23.0945 16.4261H29.3217V18.3466H23.0945V16.4261ZM33.2223 21V9.36364H37.8132C38.692 9.36364 39.442 9.52083 40.0632 9.83523C40.6882 10.1458 41.1636 10.5871 41.4893 11.1591C41.8189 11.7273 41.9837 12.3958 41.9837 13.1648C41.9837 13.9375 41.817 14.6023 41.4837 15.1591C41.1503 15.7121 40.6674 16.1364 40.0348 16.4318C39.406 16.7273 38.6447 16.875 37.7507 16.875H34.6768V14.8977H37.353C37.8227 14.8977 38.2128 14.8333 38.5234 14.7045C38.834 14.5758 39.0651 14.3826 39.2166 14.125C39.3719 13.8674 39.4496 13.5473 39.4496 13.1648C39.4496 12.7784 39.3719 12.4527 39.2166 12.1875C39.0651 11.9223 38.8322 11.7216 38.5178 11.5852C38.2072 11.4451 37.8151 11.375 37.3416 11.375H35.6825V21H33.2223ZM39.5064 15.7045L42.3984 21H39.6825L36.853 15.7045H39.5064ZM43.7223 21V9.36364H46.1825V14.4943H46.3359L50.5234 9.36364H53.4723L49.1541 14.5739L53.5234 21H50.5803L47.3928 16.2159L46.1825 17.6932V21H43.7223Z" fill="white"/>
</svg>
