<svg width="91" height="31" viewBox="0 0 91 31" fill="none" xmlns="http://www.w3.org/2000/svg">
<rect width="91" height="31" rx="5" fill="#0969C1"/>
<path d="M16.1286 21H12.0036V9.36364H16.1626C17.3331 9.36364 18.3407 9.59659 19.1854 10.0625C20.0301 10.5246 20.6797 11.1894 21.1342 12.0568C21.5926 12.9242 21.8217 13.9621 21.8217 15.1705C21.8217 16.3826 21.5926 17.4242 21.1342 18.2955C20.6797 19.1667 20.0263 19.8352 19.174 20.3011C18.3255 20.767 17.3104 21 16.1286 21ZM14.4638 18.892H16.0263C16.7536 18.892 17.3653 18.7633 17.8615 18.5057C18.3615 18.2443 18.7365 17.8409 18.9865 17.2955C19.2403 16.7462 19.3672 16.0379 19.3672 15.1705C19.3672 14.3106 19.2403 13.608 18.9865 13.0625C18.7365 12.517 18.3634 12.1155 17.8672 11.858C17.371 11.6004 16.7592 11.4716 16.032 11.4716H14.4638V18.892ZM23.6442 21V9.36364H28.2351C29.1139 9.36364 29.8639 9.52083 30.4851 9.83523C31.1101 10.1458 31.5855 10.5871 31.9112 11.1591C32.2408 11.7273 32.4055 12.3958 32.4055 13.1648C32.4055 13.9375 32.2389 14.6023 31.9055 15.1591C31.5722 15.7121 31.0893 16.1364 30.4567 16.4318C29.8279 16.7273 29.0665 16.875 28.1726 16.875H25.0987V14.8977H27.7749C28.2446 14.8977 28.6347 14.8333 28.9453 14.7045C29.2559 14.5758 29.487 14.3826 29.6385 14.125C29.7938 13.8674 29.8714 13.5473 29.8714 13.1648C29.8714 12.7784 29.7938 12.4527 29.6385 12.1875C29.487 11.9223 29.254 11.7216 28.9396 11.5852C28.629 11.4451 28.237 11.375 27.7635 11.375H26.1044V21H23.6442ZM29.9283 15.7045L32.8203 21H30.1044L27.2749 15.7045H29.9283ZM36.1499 21H33.5135L37.5305 9.36364H40.701L44.7124 21H42.076L39.1612 12.0227H39.0703L36.1499 21ZM35.9851 16.4261H42.2124V18.3466H35.9851V16.4261ZM53.282 13.125C53.2024 12.8485 53.0907 12.6042 52.9467 12.392C52.8028 12.1761 52.6267 11.9943 52.4183 11.8466C52.2138 11.6951 51.9789 11.5795 51.7138 11.5C51.4524 11.4205 51.1626 11.3807 50.8445 11.3807C50.2498 11.3807 49.727 11.5284 49.2763 11.8239C48.8293 12.1193 48.4808 12.5492 48.2308 13.1136C47.9808 13.6742 47.8558 14.3598 47.8558 15.1705C47.8558 15.9811 47.9789 16.6705 48.2251 17.2386C48.4714 17.8068 48.8198 18.2405 49.2706 18.5398C49.7214 18.8352 50.2536 18.983 50.8672 18.983C51.424 18.983 51.8994 18.8845 52.2933 18.6875C52.6911 18.4867 52.9941 18.2045 53.2024 17.8409C53.4145 17.4773 53.5206 17.0473 53.5206 16.5511L54.0206 16.625H51.0206V14.7727H55.8899V16.2386C55.8899 17.2614 55.674 18.1402 55.2422 18.875C54.8104 19.6061 54.2157 20.1705 53.4581 20.5682C52.7005 20.9621 51.8331 21.1591 50.8558 21.1591C49.7649 21.1591 48.8066 20.9186 47.9808 20.4375C47.1551 19.9527 46.5111 19.2652 46.049 18.375C45.5907 17.4811 45.3615 16.4205 45.3615 15.1932C45.3615 14.25 45.4979 13.4091 45.7706 12.6705C46.0471 11.928 46.4335 11.2992 46.9297 10.7841C47.4259 10.2689 48.0036 9.87689 48.6626 9.60795C49.3217 9.33901 50.0357 9.20455 50.8047 9.20455C51.4638 9.20455 52.0774 9.30114 52.6456 9.49432C53.2138 9.68371 53.7176 9.95265 54.157 10.3011C54.6001 10.6496 54.9619 11.0644 55.2422 11.5455C55.5225 12.0227 55.7024 12.5492 55.782 13.125H53.282ZM68.4311 15.1818C68.4311 16.4508 68.1906 17.5303 67.7095 18.4205C67.2322 19.3106 66.5807 19.9905 65.755 20.4602C64.933 20.9261 64.0088 21.1591 62.9822 21.1591C61.9482 21.1591 61.0201 20.9242 60.1982 20.4545C59.3762 19.9848 58.7266 19.3049 58.2493 18.4148C57.772 17.5246 57.5334 16.447 57.5334 15.1818C57.5334 13.9129 57.772 12.8333 58.2493 11.9432C58.7266 11.053 59.3762 10.375 60.1982 9.90909C61.0201 9.43939 61.9482 9.20455 62.9822 9.20455C64.0088 9.20455 64.933 9.43939 65.755 9.90909C66.5807 10.375 67.2322 11.053 67.7095 11.9432C68.1906 12.8333 68.4311 13.9129 68.4311 15.1818ZM65.9368 15.1818C65.9368 14.3598 65.8137 13.6667 65.5675 13.1023C65.325 12.5379 64.9822 12.1098 64.5391 11.8182C64.0959 11.5265 63.5769 11.3807 62.9822 11.3807C62.3875 11.3807 61.8686 11.5265 61.4254 11.8182C60.9822 12.1098 60.6375 12.5379 60.3913 13.1023C60.1489 13.6667 60.0277 14.3598 60.0277 15.1818C60.0277 16.0038 60.1489 16.697 60.3913 17.2614C60.6375 17.8258 60.9822 18.2538 61.4254 18.5455C61.8686 18.8371 62.3875 18.983 62.9822 18.983C63.5769 18.983 64.0959 18.8371 64.5391 18.5455C64.9822 18.2538 65.325 17.8258 65.5675 17.2614C65.8137 16.697 65.9368 16.0038 65.9368 15.1818ZM79.9865 9.36364V21H77.8615L72.799 13.6761H72.7138V21H70.2536V9.36364H72.4126L77.4354 16.6818H77.5376V9.36364H79.9865Z" fill="white"/>
</svg>
