<svg width="91" height="31" viewBox="0 0 91 31" fill="none" xmlns="http://www.w3.org/2000/svg">
<rect width="91" height="31" rx="5" fill="#F5D64B"/>
<path d="M13.8239 21V9.36364H21.6648V11.392H16.2841V14.1648H21.2614V16.1932H16.2841V18.9716H21.6875V21H13.8239ZM23.6207 21V9.36364H26.081V18.9716H31.0696V21H23.6207ZM32.6989 21V9.36364H40.5398V11.392H35.1591V14.1648H40.1364V16.1932H35.1591V18.9716H40.5625V21H32.6989ZM42.0526 11.392V9.36364H51.6094V11.392H48.0469V21H45.6151V11.392H42.0526ZM53.1832 21V9.36364H57.7741C58.6529 9.36364 59.4029 9.52083 60.0241 9.83523C60.6491 10.1458 61.1245 10.5871 61.4503 11.1591C61.7798 11.7273 61.9446 12.3958 61.9446 13.1648C61.9446 13.9375 61.7779 14.6023 61.4446 15.1591C61.1113 15.7121 60.6283 16.1364 59.9957 16.4318C59.367 16.7273 58.6056 16.875 57.7116 16.875H54.6378V14.8977H57.3139C57.7836 14.8977 58.1738 14.8333 58.4844 14.7045C58.795 14.5758 59.026 14.3826 59.1776 14.125C59.3329 13.8674 59.4105 13.5473 59.4105 13.1648C59.4105 12.7784 59.3329 12.4527 59.1776 12.1875C59.026 11.9223 58.7931 11.7216 58.4787 11.5852C58.1681 11.4451 57.776 11.375 57.3026 11.375H55.6435V21H53.1832ZM59.4673 15.7045L62.3594 21H59.6435L56.8139 15.7045H59.4673ZM66.1435 9.36364V21H63.6832V9.36364H66.1435ZM78.4347 13.4375H75.946C75.9006 13.1155 75.8078 12.8295 75.6676 12.5795C75.5275 12.3258 75.3475 12.1098 75.1278 11.9318C74.9081 11.7538 74.6544 11.6174 74.3665 11.5227C74.0824 11.428 73.7737 11.3807 73.4403 11.3807C72.8381 11.3807 72.3134 11.5303 71.8665 11.8295C71.4195 12.125 71.0729 12.5568 70.8267 13.125C70.5805 13.6894 70.4574 14.375 70.4574 15.1818C70.4574 16.0114 70.5805 16.7083 70.8267 17.2727C71.0767 17.8371 71.4252 18.2633 71.8722 18.5511C72.3191 18.839 72.8362 18.983 73.4233 18.983C73.7528 18.983 74.0578 18.9394 74.3381 18.8523C74.6222 18.7652 74.8741 18.6383 75.0938 18.4716C75.3134 18.3011 75.4953 18.0947 75.6392 17.8523C75.7869 17.6098 75.8892 17.3333 75.946 17.0227L78.4347 17.0341C78.3703 17.5682 78.2093 18.0833 77.9517 18.5795C77.6979 19.072 77.3551 19.5133 76.9233 19.9034C76.4953 20.2898 75.9839 20.5966 75.3892 20.8239C74.7983 21.0473 74.1297 21.1591 73.3835 21.1591C72.3456 21.1591 71.4176 20.9242 70.5994 20.4545C69.785 19.9848 69.1411 19.3049 68.6676 18.4148C68.1979 17.5246 67.9631 16.447 67.9631 15.1818C67.9631 13.9129 68.2017 12.8333 68.679 11.9432C69.1563 11.053 69.804 10.375 70.6222 9.90909C71.4403 9.43939 72.3608 9.20455 73.3835 9.20455C74.0578 9.20455 74.6828 9.29924 75.2585 9.48864C75.8381 9.67803 76.3513 9.95455 76.7983 10.3182C77.2453 10.678 77.6089 11.1193 77.8892 11.642C78.1733 12.1648 78.3551 12.7633 78.4347 13.4375Z" fill="white"/>
</svg>
