<svg width="64" height="31" viewBox="0 0 64 31" fill="none" xmlns="http://www.w3.org/2000/svg">
<rect width="64" height="31" rx="5" fill="#EC92E3"/>
<path d="M10.3786 21V9.36364H18.0832V11.392H12.8389V14.1648H17.5718V16.1932H12.8389V21H10.3786ZM20.2906 21H17.6542L21.6713 9.36364H24.8417L28.8531 21H26.2167L23.3019 12.0227H23.211L20.2906 21ZM20.1258 16.4261H26.3531V18.3466H20.1258V16.4261ZM32.7139 9.36364V21H30.2536V9.36364H32.7139ZM34.738 21V9.36364H39.3289C40.2077 9.36364 40.9577 9.52083 41.5789 9.83523C42.2039 10.1458 42.6793 10.5871 43.0051 11.1591C43.3346 11.7273 43.4994 12.3958 43.4994 13.1648C43.4994 13.9375 43.3327 14.6023 42.9994 15.1591C42.666 15.7121 42.1831 16.1364 41.5505 16.4318C40.9217 16.7273 40.1604 16.875 39.2664 16.875H36.1926V14.8977H38.8687C39.3384 14.8977 39.7285 14.8333 40.0391 14.7045C40.3498 14.5758 40.5808 14.3826 40.7323 14.125C40.8876 13.8674 40.9653 13.5473 40.9653 13.1648C40.9653 12.7784 40.8876 12.4527 40.7323 12.1875C40.5808 11.9223 40.3479 11.7216 40.0335 11.5852C39.7229 11.4451 39.3308 11.375 38.8573 11.375H37.1982V21H34.738ZM41.0221 15.7045L43.9141 21H41.1982L38.3687 15.7045H41.0221ZM44.0718 9.36364H46.8275L49.4809 14.375H49.5945L52.248 9.36364H55.0036L50.7593 16.8864V21H48.3161V16.8864L44.0718 9.36364Z" fill="white"/>
</svg>
