<svg width="99" height="31" viewBox="0 0 99 31" fill="none" xmlns="http://www.w3.org/2000/svg">
<rect width="99" height="31" rx="5" fill="#CF4068"/>
<path d="M10.0114 21V9.36364H17.7159V11.392H12.4716V14.1648H17.2045V16.1932H12.4716V21H10.0114ZM21.831 9.36364V21H19.3707V9.36364H21.831ZM31.571 13.125C31.4915 12.8485 31.3797 12.6042 31.2358 12.392C31.0919 12.1761 30.9157 11.9943 30.7074 11.8466C30.5028 11.6951 30.268 11.5795 30.0028 11.5C29.7415 11.4205 29.4517 11.3807 29.1335 11.3807C28.5388 11.3807 28.0161 11.5284 27.5653 11.8239C27.1184 12.1193 26.7699 12.5492 26.5199 13.1136C26.2699 13.6742 26.1449 14.3598 26.1449 15.1705C26.1449 15.9811 26.268 16.6705 26.5142 17.2386C26.7604 17.8068 27.1089 18.2405 27.5597 18.5398C28.0104 18.8352 28.5426 18.983 29.1562 18.983C29.7131 18.983 30.1884 18.8845 30.5824 18.6875C30.9801 18.4867 31.2831 18.2045 31.4915 17.8409C31.7036 17.4773 31.8097 17.0473 31.8097 16.5511L32.3097 16.625H29.3097V14.7727H34.179V16.2386C34.179 17.2614 33.9631 18.1402 33.5312 18.875C33.0994 19.6061 32.5047 20.1705 31.7472 20.5682C30.9896 20.9621 30.1222 21.1591 29.1449 21.1591C28.054 21.1591 27.0956 20.9186 26.2699 20.4375C25.4441 19.9527 24.8002 19.2652 24.3381 18.375C23.8797 17.4811 23.6506 16.4205 23.6506 15.1932C23.6506 14.25 23.7869 13.4091 24.0597 12.6705C24.3362 11.928 24.7225 11.2992 25.2188 10.7841C25.715 10.2689 26.2926 9.87689 26.9517 9.60795C27.6108 9.33901 28.3248 9.20455 29.0938 9.20455C29.7528 9.20455 30.3665 9.30114 30.9347 9.49432C31.5028 9.68371 32.0066 9.95265 32.446 10.3011C32.8892 10.6496 33.2509 11.0644 33.5312 11.5455C33.8116 12.0227 33.9915 12.5492 34.071 13.125H31.571ZM36.027 21V9.36364H38.4872V14.1648H43.4815V9.36364H45.9361V21H43.4815V16.1932H38.4872V21H36.027ZM47.5213 11.392V9.36364H57.0781V11.392H53.5156V21H51.0838V11.392H47.5213ZM61.1122 9.36364V21H58.652V9.36364H61.1122ZM72.8693 9.36364V21H70.7443L65.6818 13.6761H65.5966V21H63.1364V9.36364H65.2955L70.3182 16.6818H70.4205V9.36364H72.8693ZM82.6179 13.125C82.5384 12.8485 82.4266 12.6042 82.2827 12.392C82.1387 12.1761 81.9626 11.9943 81.7543 11.8466C81.5497 11.6951 81.3149 11.5795 81.0497 11.5C80.7884 11.4205 80.4986 11.3807 80.1804 11.3807C79.5857 11.3807 79.063 11.5284 78.6122 11.8239C78.1652 12.1193 77.8168 12.5492 77.5668 13.1136C77.3168 13.6742 77.1918 14.3598 77.1918 15.1705C77.1918 15.9811 77.3149 16.6705 77.5611 17.2386C77.8073 17.8068 78.1558 18.2405 78.6065 18.5398C79.0573 18.8352 79.5895 18.983 80.2031 18.983C80.7599 18.983 81.2353 18.8845 81.6293 18.6875C82.027 18.4867 82.33 18.2045 82.5384 17.8409C82.7505 17.4773 82.8565 17.0473 82.8565 16.5511L83.3565 16.625H80.3565V14.7727H85.2259V16.2386C85.2259 17.2614 85.0099 18.1402 84.5781 18.875C84.1463 19.6061 83.5516 20.1705 82.794 20.5682C82.0365 20.9621 81.169 21.1591 80.1918 21.1591C79.1009 21.1591 78.1425 20.9186 77.3168 20.4375C76.491 19.9527 75.8471 19.2652 75.3849 18.375C74.9266 17.4811 74.6974 16.4205 74.6974 15.1932C74.6974 14.25 74.8338 13.4091 75.1065 12.6705C75.383 11.928 75.7694 11.2992 76.2656 10.7841C76.7618 10.2689 77.3395 9.87689 77.9986 9.60795C78.6577 9.33901 79.3717 9.20455 80.1406 9.20455C80.7997 9.20455 81.4134 9.30114 81.9815 9.49432C82.5497 9.68371 83.0535 9.95265 83.4929 10.3011C83.9361 10.6496 84.2978 11.0644 84.5781 11.5455C84.8584 12.0227 85.0384 12.5492 85.1179 13.125H82.6179Z" fill="white"/>
</svg>
