<svg width="51" height="31" viewBox="0 0 51 31" fill="none" xmlns="http://www.w3.org/2000/svg">
<rect width="51" height="31" rx="5" fill="#FF9D53"/>
<path d="M10.0114 21V9.36364H17.7159V11.392H12.4716V14.1648H17.2045V16.1932H12.4716V21H10.0114ZM21.831 9.36364V21H19.3707V9.36364H21.831ZM23.8551 21V9.36364H28.446C29.3248 9.36364 30.0748 9.52083 30.696 9.83523C31.321 10.1458 31.7964 10.5871 32.1222 11.1591C32.4517 11.7273 32.6165 12.3958 32.6165 13.1648C32.6165 13.9375 32.4498 14.6023 32.1165 15.1591C31.7831 15.7121 31.3002 16.1364 30.6676 16.4318C30.0388 16.7273 29.2775 16.875 28.3835 16.875H25.3097V14.8977H27.9858C28.4555 14.8977 28.8456 14.8333 29.1562 14.7045C29.4669 14.5758 29.6979 14.3826 29.8494 14.125C30.0047 13.8674 30.0824 13.5473 30.0824 13.1648C30.0824 12.7784 30.0047 12.4527 29.8494 12.1875C29.6979 11.9223 29.465 11.7216 29.1506 11.5852C28.84 11.4451 28.4479 11.375 27.9744 11.375H26.3153V21H23.8551ZM30.1392 15.7045L33.0312 21H30.3153L27.4858 15.7045H30.1392ZM34.3551 21V9.36364H42.196V11.392H36.8153V14.1648H41.7926V16.1932H36.8153V18.9716H42.2188V21H34.3551Z" fill="white"/>
</svg>
