<svg width="74" height="31" viewBox="0 0 74 31" fill="none" xmlns="http://www.w3.org/2000/svg">
<rect width="74" height="31" rx="5" fill="#90A8DE"/>
<path d="M9.93358 21V9.36364H17.6381V11.392H12.3938V14.1648H17.1268V16.1932H12.3938V21H9.93358ZM19.293 21V9.36364H21.7532V18.9716H26.7418V21H19.293ZM26.2049 9.36364H28.9606L31.614 14.375H31.7276L34.381 9.36364H37.1367L32.8924 16.8864V21H30.4492V16.8864L26.2049 9.36364ZM40.9407 9.36364V21H38.4805V9.36364H40.9407ZM52.6978 9.36364V21H50.5728L45.5103 13.6761H45.4251V21H42.9648V9.36364H45.1239L50.1467 16.6818H50.2489V9.36364H52.6978ZM62.4464 13.125C62.3668 12.8485 62.2551 12.6042 62.1111 12.392C61.9672 12.1761 61.7911 11.9943 61.5827 11.8466C61.3782 11.6951 61.1433 11.5795 60.8782 11.5C60.6168 11.4205 60.327 11.3807 60.0089 11.3807C59.4142 11.3807 58.8914 11.5284 58.4407 11.8239C57.9937 12.1193 57.6452 12.5492 57.3952 13.1136C57.1452 13.6742 57.0202 14.3598 57.0202 15.1705C57.0202 15.9811 57.1433 16.6705 57.3895 17.2386C57.6358 17.8068 57.9842 18.2405 58.435 18.5398C58.8858 18.8352 59.418 18.983 60.0316 18.983C60.5884 18.983 61.0638 18.8845 61.4577 18.6875C61.8555 18.4867 62.1585 18.2045 62.3668 17.8409C62.5789 17.4773 62.685 17.0473 62.685 16.5511L63.185 16.625H60.185V14.7727H65.0543V16.2386C65.0543 17.2614 64.8384 18.1402 64.4066 18.875C63.9748 19.6061 63.3801 20.1705 62.6225 20.5682C61.8649 20.9621 60.9975 21.1591 60.0202 21.1591C58.9293 21.1591 57.971 20.9186 57.1452 20.4375C56.3195 19.9527 55.6755 19.2652 55.2134 18.375C54.7551 17.4811 54.5259 16.4205 54.5259 15.1932C54.5259 14.25 54.6623 13.4091 54.935 12.6705C55.2115 11.928 55.5979 11.2992 56.0941 10.7841C56.5903 10.2689 57.168 9.87689 57.827 9.60795C58.4861 9.33901 59.2002 9.20455 59.9691 9.20455C60.6282 9.20455 61.2418 9.30114 61.81 9.49432C62.3782 9.68371 62.882 9.95265 63.3214 10.3011C63.7645 10.6496 64.1263 11.0644 64.4066 11.5455C64.6869 12.0227 64.8668 12.5492 64.9464 13.125H62.4464Z" fill="white"/>
</svg>
