<svg width="74" height="31" viewBox="0 0 74 31" fill="none" xmlns="http://www.w3.org/2000/svg">
<rect width="74" height="31" rx="5" fill="#5369AC"/>
<path d="M17.2354 13.125C17.1559 12.8485 17.0441 12.6042 16.9002 12.392C16.7563 12.1761 16.5801 11.9943 16.3718 11.8466C16.1672 11.6951 15.9324 11.5795 15.6672 11.5C15.4059 11.4205 15.1161 11.3807 14.7979 11.3807C14.2032 11.3807 13.6805 11.5284 13.2297 11.8239C12.7828 12.1193 12.4343 12.5492 12.1843 13.1136C11.9343 13.6742 11.8093 14.3598 11.8093 15.1705C11.8093 15.9811 11.9324 16.6705 12.1786 17.2386C12.4248 17.8068 12.7733 18.2405 13.2241 18.5398C13.6748 18.8352 14.207 18.983 14.8207 18.983C15.3775 18.983 15.8529 18.8845 16.2468 18.6875C16.6445 18.4867 16.9475 18.2045 17.1559 17.8409C17.368 17.4773 17.4741 17.0473 17.4741 16.5511L17.9741 16.625H14.9741V14.7727H19.8434V16.2386C19.8434 17.2614 19.6275 18.1402 19.1957 18.875C18.7638 19.6061 18.1691 20.1705 17.4116 20.5682C16.654 20.9621 15.7866 21.1591 14.8093 21.1591C13.7184 21.1591 12.76 20.9186 11.9343 20.4375C11.1085 19.9527 10.4646 19.2652 10.0025 18.375C9.54414 17.4811 9.31497 16.4205 9.31497 15.1932C9.31497 14.25 9.45134 13.4091 9.72406 12.6705C10.0006 11.928 10.3869 11.2992 10.8832 10.7841C11.3794 10.2689 11.957 9.87689 12.6161 9.60795C13.2752 9.33901 13.9892 9.20455 14.7582 9.20455C15.4172 9.20455 16.0309 9.30114 16.5991 9.49432C17.1672 9.68371 17.671 9.95265 18.1104 10.3011C18.5536 10.6496 18.9154 11.0644 19.1957 11.5455C19.476 12.0227 19.6559 12.5492 19.7354 13.125H17.2354ZM21.6914 21V9.36364H24.1516V14.1648H29.1459V9.36364H31.6005V21H29.1459V16.1932H24.1516V21H21.6914ZM44.3221 15.1818C44.3221 16.4508 44.0815 17.5303 43.6005 18.4205C43.1232 19.3106 42.4717 19.9905 41.6459 20.4602C40.824 20.9261 39.8997 21.1591 38.8732 21.1591C37.8391 21.1591 36.9111 20.9242 36.0891 20.4545C35.2672 19.9848 34.6175 19.3049 34.1403 18.4148C33.663 17.5246 33.4243 16.447 33.4243 15.1818C33.4243 13.9129 33.663 12.8333 34.1403 11.9432C34.6175 11.053 35.2672 10.375 36.0891 9.90909C36.9111 9.43939 37.8391 9.20455 38.8732 9.20455C39.8997 9.20455 40.824 9.43939 41.6459 9.90909C42.4717 10.375 43.1232 11.053 43.6005 11.9432C44.0815 12.8333 44.3221 13.9129 44.3221 15.1818ZM41.8278 15.1818C41.8278 14.3598 41.7047 13.6667 41.4584 13.1023C41.216 12.5379 40.8732 12.1098 40.43 11.8182C39.9868 11.5265 39.4679 11.3807 38.8732 11.3807C38.2785 11.3807 37.7596 11.5265 37.3164 11.8182C36.8732 12.1098 36.5285 12.5379 36.2823 13.1023C36.0399 13.6667 35.9187 14.3598 35.9187 15.1818C35.9187 16.0038 36.0399 16.697 36.2823 17.2614C36.5285 17.8258 36.8732 18.2538 37.3164 18.5455C37.7596 18.8371 38.2785 18.983 38.8732 18.983C39.4679 18.983 39.9868 18.8371 40.43 18.5455C40.8732 18.2538 41.216 17.8258 41.4584 17.2614C41.7047 16.697 41.8278 16.0038 41.8278 15.1818ZM52.457 12.7102C52.4116 12.2519 52.2165 11.8958 51.8718 11.642C51.5271 11.3883 51.0593 11.2614 50.4684 11.2614C50.0669 11.2614 49.7279 11.3182 49.4513 11.4318C49.1748 11.5417 48.9627 11.6951 48.815 11.892C48.671 12.089 48.5991 12.3125 48.5991 12.5625C48.5915 12.7708 48.635 12.9527 48.7297 13.108C48.8282 13.2633 48.9627 13.3977 49.1332 13.5114C49.3036 13.6212 49.5006 13.7178 49.7241 13.8011C49.9475 13.8807 50.1862 13.9489 50.44 14.0057L51.4854 14.2557C51.993 14.3693 52.4589 14.5208 52.8832 14.7102C53.3074 14.8996 53.6748 15.1326 53.9854 15.4091C54.296 15.6856 54.5366 16.0114 54.707 16.3864C54.8813 16.7614 54.9703 17.1913 54.9741 17.6761C54.9703 18.3883 54.7885 19.0057 54.4286 19.5284C54.0726 20.0473 53.5574 20.4508 52.8832 20.7386C52.2127 21.0227 51.404 21.1648 50.457 21.1648C49.5176 21.1648 48.6994 21.0208 48.0025 20.733C47.3093 20.4451 46.7676 20.0189 46.3775 19.4545C45.9911 18.8864 45.7885 18.1837 45.7695 17.3466H48.1502C48.1767 17.7367 48.2885 18.0625 48.4854 18.3239C48.6862 18.5814 48.9532 18.7765 49.2866 18.9091C49.6237 19.0379 50.0044 19.1023 50.4286 19.1023C50.8453 19.1023 51.207 19.0417 51.5138 18.9205C51.8244 18.7992 52.065 18.6307 52.2354 18.4148C52.4059 18.1989 52.4911 17.9508 52.4911 17.6705C52.4911 17.4091 52.4135 17.1894 52.2582 17.0114C52.1066 16.8333 51.8832 16.6818 51.5877 16.5568C51.296 16.4318 50.9381 16.3182 50.5138 16.2159L49.2468 15.8977C48.2657 15.6591 47.4911 15.286 46.9229 14.7784C46.3547 14.2708 46.0725 13.5871 46.0763 12.7273C46.0725 12.0227 46.26 11.4072 46.6388 10.8807C47.0214 10.3542 47.546 9.94318 48.2127 9.64773C48.8794 9.35227 49.6369 9.20455 50.4854 9.20455C51.3491 9.20455 52.1029 9.35227 52.7468 9.64773C53.3945 9.94318 53.8983 10.3542 54.2582 10.8807C54.618 11.4072 54.8036 12.017 54.815 12.7102H52.457ZM56.1857 11.392V9.36364H65.7425V11.392H62.18V21H59.7482V11.392H56.1857Z" fill="white"/>
</svg>
