<svg width="75" height="31" viewBox="0 0 75 31" fill="none" xmlns="http://www.w3.org/2000/svg">
<rect width="75" height="31" rx="5" fill="#5FBA57"/>
<path d="M17.7273 13.125C17.6477 12.8485 17.536 12.6042 17.392 12.392C17.2481 12.1761 17.072 11.9943 16.8636 11.8466C16.6591 11.6951 16.4242 11.5795 16.1591 11.5C15.8977 11.4205 15.608 11.3807 15.2898 11.3807C14.6951 11.3807 14.1723 11.5284 13.7216 11.8239C13.2746 12.1193 12.9261 12.5492 12.6761 13.1136C12.4261 13.6742 12.3011 14.3598 12.3011 15.1705C12.3011 15.9811 12.4242 16.6705 12.6705 17.2386C12.9167 17.8068 13.2652 18.2405 13.7159 18.5398C14.1667 18.8352 14.6989 18.983 15.3125 18.983C15.8693 18.983 16.3447 18.8845 16.7386 18.6875C17.1364 18.4867 17.4394 18.2045 17.6477 17.8409C17.8598 17.4773 17.9659 17.0473 17.9659 16.5511L18.4659 16.625H15.4659V14.7727H20.3352V16.2386C20.3352 17.2614 20.1193 18.1402 19.6875 18.875C19.2557 19.6061 18.661 20.1705 17.9034 20.5682C17.1458 20.9621 16.2784 21.1591 15.3011 21.1591C14.2102 21.1591 13.2519 20.9186 12.4261 20.4375C11.6004 19.9527 10.9564 19.2652 10.4943 18.375C10.036 17.4811 9.80682 16.4205 9.80682 15.1932C9.80682 14.25 9.94318 13.4091 10.2159 12.6705C10.4924 11.928 10.8788 11.2992 11.375 10.7841C11.8712 10.2689 12.4489 9.87689 13.108 9.60795C13.767 9.33901 14.4811 9.20455 15.25 9.20455C15.9091 9.20455 16.5227 9.30114 17.0909 9.49432C17.6591 9.68371 18.1629 9.95265 18.6023 10.3011C19.0455 10.6496 19.4072 11.0644 19.6875 11.5455C19.9678 12.0227 20.1477 12.5492 20.2273 13.125H17.7273ZM22.1832 21V9.36364H26.7741C27.6529 9.36364 28.4029 9.52083 29.0241 9.83523C29.6491 10.1458 30.1245 10.5871 30.4503 11.1591C30.7798 11.7273 30.9446 12.3958 30.9446 13.1648C30.9446 13.9375 30.7779 14.6023 30.4446 15.1591C30.1113 15.7121 29.6283 16.1364 28.9957 16.4318C28.367 16.7273 27.6056 16.875 26.7116 16.875H23.6378V14.8977H26.3139C26.7836 14.8977 27.1738 14.8333 27.4844 14.7045C27.795 14.5758 28.026 14.3826 28.1776 14.125C28.3329 13.8674 28.4105 13.5473 28.4105 13.1648C28.4105 12.7784 28.3329 12.4527 28.1776 12.1875C28.026 11.9223 27.7931 11.7216 27.4787 11.5852C27.1681 11.4451 26.776 11.375 26.3026 11.375H24.6435V21H22.1832ZM28.4673 15.7045L31.3594 21H28.6435L25.8139 15.7045H28.4673ZM34.6889 21H32.0526L36.0696 9.36364H39.2401L43.2514 21H40.6151L37.7003 12.0227H37.6094L34.6889 21ZM34.5241 16.4261H40.7514V18.3466H34.5241V16.4261ZM50.6989 12.7102C50.6534 12.2519 50.4583 11.8958 50.1136 11.642C49.7689 11.3883 49.3011 11.2614 48.7102 11.2614C48.3087 11.2614 47.9697 11.3182 47.6932 11.4318C47.4167 11.5417 47.2045 11.6951 47.0568 11.892C46.9129 12.089 46.8409 12.3125 46.8409 12.5625C46.8333 12.7708 46.8769 12.9527 46.9716 13.108C47.0701 13.2633 47.2045 13.3977 47.375 13.5114C47.5455 13.6212 47.7424 13.7178 47.9659 13.8011C48.1894 13.8807 48.428 13.9489 48.6818 14.0057L49.7273 14.2557C50.2348 14.3693 50.7008 14.5208 51.125 14.7102C51.5492 14.8996 51.9167 15.1326 52.2273 15.4091C52.5379 15.6856 52.7784 16.0114 52.9489 16.3864C53.1231 16.7614 53.2121 17.1913 53.2159 17.6761C53.2121 18.3883 53.0303 19.0057 52.6705 19.5284C52.3144 20.0473 51.7992 20.4508 51.125 20.7386C50.4545 21.0227 49.6458 21.1648 48.6989 21.1648C47.7595 21.1648 46.9413 21.0208 46.2443 20.733C45.5511 20.4451 45.0095 20.0189 44.6193 19.4545C44.233 18.8864 44.0303 18.1837 44.0114 17.3466H46.392C46.4186 17.7367 46.5303 18.0625 46.7273 18.3239C46.928 18.5814 47.1951 18.7765 47.5284 18.9091C47.8655 19.0379 48.2462 19.1023 48.6705 19.1023C49.0871 19.1023 49.4489 19.0417 49.7557 18.9205C50.0663 18.7992 50.3068 18.6307 50.4773 18.4148C50.6477 18.1989 50.733 17.9508 50.733 17.6705C50.733 17.4091 50.6553 17.1894 50.5 17.0114C50.3485 16.8333 50.125 16.6818 49.8295 16.5568C49.5379 16.4318 49.1799 16.3182 48.7557 16.2159L47.4886 15.8977C46.5076 15.6591 45.733 15.286 45.1648 14.7784C44.5966 14.2708 44.3144 13.5871 44.3182 12.7273C44.3144 12.0227 44.5019 11.4072 44.8807 10.8807C45.2633 10.3542 45.7879 9.94318 46.4545 9.64773C47.1212 9.35227 47.8788 9.20455 48.7273 9.20455C49.5909 9.20455 50.3447 9.35227 50.9886 9.64773C51.6364 9.94318 52.1402 10.3542 52.5 10.8807C52.8598 11.4072 53.0455 12.017 53.0568 12.7102H50.6989ZM61.1832 12.7102C61.1378 12.2519 60.9427 11.8958 60.598 11.642C60.2533 11.3883 59.7855 11.2614 59.1946 11.2614C58.7931 11.2614 58.4541 11.3182 58.1776 11.4318C57.901 11.5417 57.6889 11.6951 57.5412 11.892C57.3973 12.089 57.3253 12.3125 57.3253 12.5625C57.3177 12.7708 57.3613 12.9527 57.456 13.108C57.5545 13.2633 57.6889 13.3977 57.8594 13.5114C58.0298 13.6212 58.2268 13.7178 58.4503 13.8011C58.6738 13.8807 58.9124 13.9489 59.1662 14.0057L60.2116 14.2557C60.7192 14.3693 61.1851 14.5208 61.6094 14.7102C62.0336 14.8996 62.401 15.1326 62.7116 15.4091C63.0223 15.6856 63.2628 16.0114 63.4332 16.3864C63.6075 16.7614 63.6965 17.1913 63.7003 17.6761C63.6965 18.3883 63.5147 19.0057 63.1548 19.5284C62.7988 20.0473 62.2836 20.4508 61.6094 20.7386C60.9389 21.0227 60.1302 21.1648 59.1832 21.1648C58.2438 21.1648 57.4257 21.0208 56.7287 20.733C56.0355 20.4451 55.4938 20.0189 55.1037 19.4545C54.7173 18.8864 54.5147 18.1837 54.4957 17.3466H56.8764C56.9029 17.7367 57.0147 18.0625 57.2116 18.3239C57.4124 18.5814 57.6795 18.7765 58.0128 18.9091C58.3499 19.0379 58.7306 19.1023 59.1548 19.1023C59.5715 19.1023 59.9332 19.0417 60.2401 18.9205C60.5507 18.7992 60.7912 18.6307 60.9616 18.4148C61.1321 18.1989 61.2173 17.9508 61.2173 17.6705C61.2173 17.4091 61.1397 17.1894 60.9844 17.0114C60.8329 16.8333 60.6094 16.6818 60.3139 16.5568C60.0223 16.4318 59.6643 16.3182 59.2401 16.2159L57.973 15.8977C56.992 15.6591 56.2173 15.286 55.6491 14.7784C55.081 14.2708 54.7988 13.5871 54.8026 12.7273C54.7988 12.0227 54.9863 11.4072 55.3651 10.8807C55.7476 10.3542 56.2723 9.94318 56.9389 9.64773C57.6056 9.35227 58.3632 9.20455 59.2116 9.20455C60.0753 9.20455 60.8291 9.35227 61.473 9.64773C62.1207 9.94318 62.6245 10.3542 62.9844 10.8807C63.3442 11.4072 63.5298 12.017 63.5412 12.7102H61.1832Z" fill="white"/>
</svg>
