<svg width="86" height="31" viewBox="0 0 86 31" fill="none" xmlns="http://www.w3.org/2000/svg">
<rect width="86" height="31" rx="5" fill="#D87B4A"/>
<path d="M17.7273 13.125C17.6477 12.8485 17.536 12.6042 17.392 12.392C17.2481 12.1761 17.072 11.9943 16.8636 11.8466C16.6591 11.6951 16.4242 11.5795 16.1591 11.5C15.8977 11.4205 15.608 11.3807 15.2898 11.3807C14.6951 11.3807 14.1723 11.5284 13.7216 11.8239C13.2746 12.1193 12.9261 12.5492 12.6761 13.1136C12.4261 13.6742 12.3011 14.3598 12.3011 15.1705C12.3011 15.9811 12.4242 16.6705 12.6705 17.2386C12.9167 17.8068 13.2652 18.2405 13.7159 18.5398C14.1667 18.8352 14.6989 18.983 15.3125 18.983C15.8693 18.983 16.3447 18.8845 16.7386 18.6875C17.1364 18.4867 17.4394 18.2045 17.6477 17.8409C17.8598 17.4773 17.9659 17.0473 17.9659 16.5511L18.4659 16.625H15.4659V14.7727H20.3352V16.2386C20.3352 17.2614 20.1193 18.1402 19.6875 18.875C19.2557 19.6061 18.661 20.1705 17.9034 20.5682C17.1458 20.9621 16.2784 21.1591 15.3011 21.1591C14.2102 21.1591 13.2519 20.9186 12.4261 20.4375C11.6004 19.9527 10.9564 19.2652 10.4943 18.375C10.036 17.4811 9.80682 16.4205 9.80682 15.1932C9.80682 14.25 9.94318 13.4091 10.2159 12.6705C10.4924 11.928 10.8788 11.2992 11.375 10.7841C11.8712 10.2689 12.4489 9.87689 13.108 9.60795C13.767 9.33901 14.4811 9.20455 15.25 9.20455C15.9091 9.20455 16.5227 9.30114 17.0909 9.49432C17.6591 9.68371 18.1629 9.95265 18.6023 10.3011C19.0455 10.6496 19.4072 11.0644 19.6875 11.5455C19.9678 12.0227 20.1477 12.5492 20.2273 13.125H17.7273ZM22.1832 21V9.36364H26.7741C27.6529 9.36364 28.4029 9.52083 29.0241 9.83523C29.6491 10.1458 30.1245 10.5871 30.4503 11.1591C30.7798 11.7273 30.9446 12.3958 30.9446 13.1648C30.9446 13.9375 30.7779 14.6023 30.4446 15.1591C30.1113 15.7121 29.6283 16.1364 28.9957 16.4318C28.367 16.7273 27.6056 16.875 26.7116 16.875H23.6378V14.8977H26.3139C26.7836 14.8977 27.1738 14.8333 27.4844 14.7045C27.795 14.5758 28.026 14.3826 28.1776 14.125C28.3329 13.8674 28.4105 13.5473 28.4105 13.1648C28.4105 12.7784 28.3329 12.4527 28.1776 12.1875C28.026 11.9223 27.7931 11.7216 27.4787 11.5852C27.1681 11.4451 26.776 11.375 26.3026 11.375H24.6435V21H22.1832ZM28.4673 15.7045L31.3594 21H28.6435L25.8139 15.7045H28.4673ZM43.3764 15.1818C43.3764 16.4508 43.1359 17.5303 42.6548 18.4205C42.1776 19.3106 41.526 19.9905 40.7003 20.4602C39.8783 20.9261 38.9541 21.1591 37.9276 21.1591C36.8935 21.1591 35.9654 20.9242 35.1435 20.4545C34.3215 19.9848 33.6719 19.3049 33.1946 18.4148C32.7173 17.5246 32.4787 16.447 32.4787 15.1818C32.4787 13.9129 32.7173 12.8333 33.1946 11.9432C33.6719 11.053 34.3215 10.375 35.1435 9.90909C35.9654 9.43939 36.8935 9.20455 37.9276 9.20455C38.9541 9.20455 39.8783 9.43939 40.7003 9.90909C41.526 10.375 42.1776 11.053 42.6548 11.9432C43.1359 12.8333 43.3764 13.9129 43.3764 15.1818ZM40.8821 15.1818C40.8821 14.3598 40.759 13.6667 40.5128 13.1023C40.2704 12.5379 39.9276 12.1098 39.4844 11.8182C39.0412 11.5265 38.5223 11.3807 37.9276 11.3807C37.3329 11.3807 36.8139 11.5265 36.3707 11.8182C35.9276 12.1098 35.5829 12.5379 35.3366 13.1023C35.0942 13.6667 34.973 14.3598 34.973 15.1818C34.973 16.0038 35.0942 16.697 35.3366 17.2614C35.5829 17.8258 35.9276 18.2538 36.3707 18.5455C36.8139 18.8371 37.3329 18.983 37.9276 18.983C38.5223 18.983 39.0412 18.8371 39.4844 18.5455C39.9276 18.2538 40.2704 17.8258 40.5128 17.2614C40.759 16.697 40.8821 16.0038 40.8821 15.1818ZM52.3864 9.36364H54.8466V16.9205C54.8466 17.7689 54.6439 18.5114 54.2386 19.1477C53.8371 19.7841 53.2746 20.2803 52.5511 20.6364C51.8277 20.9886 50.9848 21.1648 50.0227 21.1648C49.0568 21.1648 48.2121 20.9886 47.4886 20.6364C46.7652 20.2803 46.2027 19.7841 45.8011 19.1477C45.3996 18.5114 45.1989 17.7689 45.1989 16.9205V9.36364H47.6591V16.7102C47.6591 17.1534 47.7557 17.5473 47.9489 17.892C48.1458 18.2367 48.4223 18.5076 48.7784 18.7045C49.1345 18.9015 49.5492 19 50.0227 19C50.5 19 50.9148 18.9015 51.267 18.7045C51.6231 18.5076 51.8977 18.2367 52.0909 17.892C52.2879 17.5473 52.3864 17.1534 52.3864 16.7102V9.36364ZM66.6037 9.36364V21H64.4787L59.4162 13.6761H59.331V21H56.8707V9.36364H59.0298L64.0526 16.6818H64.1548V9.36364H66.6037ZM72.7614 21H68.6364V9.36364H72.7955C73.9659 9.36364 74.9735 9.59659 75.8182 10.0625C76.6629 10.5246 77.3125 11.1894 77.767 12.0568C78.2254 12.9242 78.4545 13.9621 78.4545 15.1705C78.4545 16.3826 78.2254 17.4242 77.767 18.2955C77.3125 19.1667 76.6591 19.8352 75.8068 20.3011C74.9583 20.767 73.9432 21 72.7614 21ZM71.0966 18.892H72.6591C73.3864 18.892 73.9981 18.7633 74.4943 18.5057C74.9943 18.2443 75.3693 17.8409 75.6193 17.2955C75.8731 16.7462 76 16.0379 76 15.1705C76 14.3106 75.8731 13.608 75.6193 13.0625C75.3693 12.517 74.9962 12.1155 74.5 11.858C74.0038 11.6004 73.392 11.4716 72.6648 11.4716H71.0966V18.892Z" fill="white"/>
</svg>
