<svg width="44" height="31" viewBox="0 0 44 31" fill="none" xmlns="http://www.w3.org/2000/svg">
<rect width="44" height="31" rx="5" fill="#74CEC1"/>
<path d="M12.5571 9.36364V21H10.0969V9.36364H12.5571ZM24.8483 13.4375H22.3597C22.3142 13.1155 22.2214 12.8295 22.0812 12.5795C21.9411 12.3258 21.7612 12.1098 21.5415 11.9318C21.3218 11.7538 21.068 11.6174 20.7801 11.5227C20.496 11.428 20.1873 11.3807 19.854 11.3807C19.2517 11.3807 18.7271 11.5303 18.2801 11.8295C17.8331 12.125 17.4865 12.5568 17.2403 13.125C16.9941 13.6894 16.871 14.375 16.871 15.1818C16.871 16.0114 16.9941 16.7083 17.2403 17.2727C17.4903 17.8371 17.8388 18.2633 18.2858 18.5511C18.7328 18.839 19.2498 18.983 19.8369 18.983C20.1665 18.983 20.4714 18.9394 20.7517 18.8523C21.0358 18.7652 21.2877 18.6383 21.5074 18.4716C21.7271 18.3011 21.9089 18.0947 22.0528 17.8523C22.2006 17.6098 22.3028 17.3333 22.3597 17.0227L24.8483 17.0341C24.7839 17.5682 24.6229 18.0833 24.3653 18.5795C24.1115 19.072 23.7687 19.5133 23.3369 19.9034C22.9089 20.2898 22.3975 20.5966 21.8028 20.8239C21.2119 21.0473 20.5434 21.1591 19.7972 21.1591C18.7593 21.1591 17.8312 20.9242 17.0131 20.4545C16.1987 19.9848 15.5547 19.3049 15.0812 18.4148C14.6115 17.5246 14.3767 16.447 14.3767 15.1818C14.3767 13.9129 14.6153 12.8333 15.0926 11.9432C15.5699 11.053 16.2176 10.375 17.0358 9.90909C17.854 9.43939 18.7744 9.20455 19.7972 9.20455C20.4714 9.20455 21.0964 9.29924 21.6722 9.48864C22.2517 9.67803 22.765 9.95455 23.2119 10.3182C23.6589 10.678 24.0225 11.1193 24.3028 11.642C24.5869 12.1648 24.7687 12.7633 24.8483 13.4375ZM26.6125 21V9.36364H34.4534V11.392H29.0727V14.1648H34.05V16.1932H29.0727V18.9716H34.4761V21H26.6125Z" fill="white"/>
</svg>
