<svg width="91" height="31" viewBox="0 0 91 31" fill="none" xmlns="http://www.w3.org/2000/svg">
<rect width="91" height="31" rx="5" fill="#9099A1"/>
<path d="M21.5099 9.36364V21H19.3849L14.3224 13.6761H14.2372V21H11.777V9.36364H13.9361L18.9588 16.6818H19.0611V9.36364H21.5099ZM34.2358 15.1818C34.2358 16.4508 33.9953 17.5303 33.5142 18.4205C33.0369 19.3106 32.3854 19.9905 31.5597 20.4602C30.7377 20.9261 29.8134 21.1591 28.7869 21.1591C27.7528 21.1591 26.8248 20.9242 26.0028 20.4545C25.1809 19.9848 24.5313 19.3049 24.054 18.4148C23.5767 17.5246 23.3381 16.447 23.3381 15.1818C23.3381 13.9129 23.5767 12.8333 24.054 11.9432C24.5313 11.053 25.1809 10.375 26.0028 9.90909C26.8248 9.43939 27.7528 9.20455 28.7869 9.20455C29.8134 9.20455 30.7377 9.43939 31.5597 9.90909C32.3854 10.375 33.0369 11.053 33.5142 11.9432C33.9953 12.8333 34.2358 13.9129 34.2358 15.1818ZM31.7415 15.1818C31.7415 14.3598 31.6184 13.6667 31.3722 13.1023C31.1297 12.5379 30.7869 12.1098 30.3438 11.8182C29.9006 11.5265 29.3816 11.3807 28.7869 11.3807C28.1922 11.3807 27.6733 11.5265 27.2301 11.8182C26.7869 12.1098 26.4422 12.5379 26.196 13.1023C25.9536 13.6667 25.8324 14.3598 25.8324 15.1818C25.8324 16.0038 25.9536 16.697 26.196 17.2614C26.4422 17.8258 26.7869 18.2538 27.2301 18.5455C27.6733 18.8371 28.1922 18.983 28.7869 18.983C29.3816 18.983 29.9006 18.8371 30.3438 18.5455C30.7869 18.2538 31.1297 17.8258 31.3722 17.2614C31.6184 16.697 31.7415 16.0038 31.7415 15.1818ZM36.0582 21V9.36364H40.6491C41.5279 9.36364 42.2779 9.52083 42.8991 9.83523C43.5241 10.1458 43.9995 10.5871 44.3253 11.1591C44.6548 11.7273 44.8196 12.3958 44.8196 13.1648C44.8196 13.9375 44.6529 14.6023 44.3196 15.1591C43.9863 15.7121 43.5033 16.1364 42.8707 16.4318C42.242 16.7273 41.4806 16.875 40.5866 16.875H37.5128V14.8977H40.1889C40.6586 14.8977 41.0488 14.8333 41.3594 14.7045C41.67 14.5758 41.901 14.3826 42.0526 14.125C42.2079 13.8674 42.2855 13.5473 42.2855 13.1648C42.2855 12.7784 42.2079 12.4527 42.0526 12.1875C41.901 11.9223 41.6681 11.7216 41.3537 11.5852C41.0431 11.4451 40.651 11.375 40.1776 11.375H38.5185V21H36.0582ZM42.3423 15.7045L45.2344 21H42.5185L39.6889 15.7045H42.3423ZM46.5582 9.36364H49.5923L52.7969 17.1818H52.9332L56.1378 9.36364H59.1719V21H56.7855V13.4261H56.6889L53.6776 20.9432H52.0526L49.0412 13.3977H48.9446V21H46.5582V9.36364ZM63.2045 21H60.5682L64.5852 9.36364H67.7557L71.767 21H69.1307L66.2159 12.0227H66.125L63.2045 21ZM63.0398 16.4261H69.267V18.3466H63.0398V16.4261ZM73.1676 21V9.36364H75.6278V18.9716H80.6165V21H73.1676Z" fill="white"/>
</svg>
