<svg width="78" height="31" viewBox="0 0 78 31" fill="none" xmlns="http://www.w3.org/2000/svg">
<rect width="78" height="31" rx="5" fill="#A866C8"/>
<path d="M9.37743 21V9.36364H13.9683C14.8509 9.36364 15.6028 9.5322 16.224 9.86932C16.8452 10.2027 17.3187 10.6667 17.6445 11.2614C17.974 11.8523 18.1388 12.5341 18.1388 13.3068C18.1388 14.0795 17.9721 14.7614 17.6388 15.3523C17.3055 15.9432 16.8225 16.4034 16.1899 16.733C15.5611 17.0625 14.7998 17.2273 13.9058 17.2273H10.9797V15.2557H13.5081C13.9816 15.2557 14.3718 15.1742 14.6786 15.0114C14.9892 14.8447 15.2202 14.6155 15.3718 14.3239C15.5271 14.0284 15.6047 13.6894 15.6047 13.3068C15.6047 12.9205 15.5271 12.5833 15.3718 12.2955C15.2202 12.0038 14.9892 11.7784 14.6786 11.6193C14.368 11.4564 13.974 11.375 13.4968 11.375H11.8377V21H9.37743ZM30.43 15.1818C30.43 16.4508 30.1895 17.5303 29.7084 18.4205C29.2311 19.3106 28.5796 19.9905 27.7539 20.4602C26.9319 20.9261 26.0076 21.1591 24.9811 21.1591C23.947 21.1591 23.019 20.9242 22.197 20.4545C21.3751 19.9848 20.7254 19.3049 20.2482 18.4148C19.7709 17.5246 19.5323 16.447 19.5323 15.1818C19.5323 13.9129 19.7709 12.8333 20.2482 11.9432C20.7254 11.053 21.3751 10.375 22.197 9.90909C23.019 9.43939 23.947 9.20455 24.9811 9.20455C26.0076 9.20455 26.9319 9.43939 27.7539 9.90909C28.5796 10.375 29.2311 11.053 29.7084 11.9432C30.1895 12.8333 30.43 13.9129 30.43 15.1818ZM27.9357 15.1818C27.9357 14.3598 27.8126 13.6667 27.5664 13.1023C27.3239 12.5379 26.9811 12.1098 26.5379 11.8182C26.0948 11.5265 25.5758 11.3807 24.9811 11.3807C24.3864 11.3807 23.8675 11.5265 23.4243 11.8182C22.9811 12.1098 22.6364 12.5379 22.3902 13.1023C22.1478 13.6667 22.0266 14.3598 22.0266 15.1818C22.0266 16.0038 22.1478 16.697 22.3902 17.2614C22.6364 17.8258 22.9811 18.2538 23.4243 18.5455C23.8675 18.8371 24.3864 18.983 24.9811 18.983C25.5758 18.983 26.0948 18.8371 26.5379 18.5455C26.9811 18.2538 27.3239 17.8258 27.5664 17.2614C27.8126 16.697 27.9357 16.0038 27.9357 15.1818ZM34.7127 9.36364V21H32.2524V9.36364H34.7127ZM43.0493 12.7102C43.0039 12.2519 42.8088 11.8958 42.4641 11.642C42.1194 11.3883 41.6516 11.2614 41.0607 11.2614C40.6592 11.2614 40.3201 11.3182 40.0436 11.4318C39.7671 11.5417 39.555 11.6951 39.4073 11.892C39.2633 12.089 39.1914 12.3125 39.1914 12.5625C39.1838 12.7708 39.2273 12.9527 39.322 13.108C39.4205 13.2633 39.555 13.3977 39.7254 13.5114C39.8959 13.6212 40.0929 13.7178 40.3164 13.8011C40.5398 13.8807 40.7785 13.9489 41.0323 14.0057L42.0777 14.2557C42.5853 14.3693 43.0512 14.5208 43.4754 14.7102C43.8997 14.8996 44.2671 15.1326 44.5777 15.4091C44.8883 15.6856 45.1289 16.0114 45.2993 16.3864C45.4736 16.7614 45.5626 17.1913 45.5664 17.6761C45.5626 18.3883 45.3807 19.0057 45.0209 19.5284C44.6648 20.0473 44.1497 20.4508 43.4754 20.7386C42.805 21.0227 41.9963 21.1648 41.0493 21.1648C40.1099 21.1648 39.2917 21.0208 38.5948 20.733C37.9016 20.4451 37.3599 20.0189 36.9698 19.4545C36.5834 18.8864 36.3807 18.1837 36.3618 17.3466H38.7425C38.769 17.7367 38.8807 18.0625 39.0777 18.3239C39.2785 18.5814 39.5455 18.7765 39.8789 18.9091C40.216 19.0379 40.5967 19.1023 41.0209 19.1023C41.4376 19.1023 41.7993 19.0417 42.1061 18.9205C42.4167 18.7992 42.6573 18.6307 42.8277 18.4148C42.9982 18.1989 43.0834 17.9508 43.0834 17.6705C43.0834 17.4091 43.0057 17.1894 42.8504 17.0114C42.6989 16.8333 42.4754 16.6818 42.18 16.5568C41.8883 16.4318 41.5304 16.3182 41.1061 16.2159L39.8391 15.8977C38.858 15.6591 38.0834 15.286 37.5152 14.7784C36.947 14.2708 36.6648 13.5871 36.6686 12.7273C36.6648 12.0227 36.8523 11.4072 37.2311 10.8807C37.6137 10.3542 38.1383 9.94318 38.805 9.64773C39.4717 9.35227 40.2292 9.20455 41.0777 9.20455C41.9414 9.20455 42.6951 9.35227 43.3391 9.64773C43.9868 9.94318 44.4906 10.3542 44.8504 10.8807C45.2103 11.4072 45.3959 12.017 45.4073 12.7102H43.0493ZM57.9144 15.1818C57.9144 16.4508 57.6738 17.5303 57.1928 18.4205C56.7155 19.3106 56.064 19.9905 55.2382 20.4602C54.4163 20.9261 53.492 21.1591 52.4655 21.1591C51.4314 21.1591 50.5034 20.9242 49.6814 20.4545C48.8594 19.9848 48.2098 19.3049 47.7325 18.4148C47.2553 17.5246 47.0166 16.447 47.0166 15.1818C47.0166 13.9129 47.2553 12.8333 47.7325 11.9432C48.2098 11.053 48.8594 10.375 49.6814 9.90909C50.5034 9.43939 51.4314 9.20455 52.4655 9.20455C53.492 9.20455 54.4163 9.43939 55.2382 9.90909C56.064 10.375 56.7155 11.053 57.1928 11.9432C57.6738 12.8333 57.9144 13.9129 57.9144 15.1818ZM55.42 15.1818C55.42 14.3598 55.2969 13.6667 55.0507 13.1023C54.8083 12.5379 54.4655 12.1098 54.0223 11.8182C53.5791 11.5265 53.0602 11.3807 52.4655 11.3807C51.8708 11.3807 51.3519 11.5265 50.9087 11.8182C50.4655 12.1098 50.1208 12.5379 49.8746 13.1023C49.6322 13.6667 49.511 14.3598 49.511 15.1818C49.511 16.0038 49.6322 16.697 49.8746 17.2614C50.1208 17.8258 50.4655 18.2538 50.9087 18.5455C51.3519 18.8371 51.8708 18.983 52.4655 18.983C53.0602 18.983 53.5791 18.8371 54.0223 18.5455C54.4655 18.2538 54.8083 17.8258 55.0507 17.2614C55.2969 16.697 55.42 16.0038 55.42 15.1818ZM69.4698 9.36364V21H67.3448L62.2823 13.6761H62.197V21H59.7368V9.36364H61.8959L66.9186 16.6818H67.0209V9.36364H69.4698Z" fill="white"/>
</svg>
