<svg width="91" height="31" viewBox="0 0 91 31" fill="none" xmlns="http://www.w3.org/2000/svg">
<rect width="91" height="31" rx="5" fill="#F86E74"/>
<path d="M10.902 21V9.36364H15.4929C16.3755 9.36364 17.1274 9.5322 17.7486 9.86932C18.3698 10.2027 18.8433 10.6667 19.169 11.2614C19.4986 11.8523 19.6634 12.5341 19.6634 13.3068C19.6634 14.0795 19.4967 14.7614 19.1634 15.3523C18.83 15.9432 18.3471 16.4034 17.7145 16.733C17.0857 17.0625 16.3243 17.2273 15.4304 17.2273H12.5043V15.2557H15.0327C15.5062 15.2557 15.8963 15.1742 16.2031 15.0114C16.5137 14.8447 16.7448 14.6155 16.8963 14.3239C17.0516 14.0284 17.1293 13.6894 17.1293 13.3068C17.1293 12.9205 17.0516 12.5833 16.8963 12.2955C16.7448 12.0038 16.5137 11.7784 16.2031 11.6193C15.8925 11.4564 15.4986 11.375 15.0213 11.375H13.3622V21H10.902ZM27.5739 12.7102C27.5284 12.2519 27.3333 11.8958 26.9886 11.642C26.6439 11.3883 26.1761 11.2614 25.5852 11.2614C25.1837 11.2614 24.8447 11.3182 24.5682 11.4318C24.2917 11.5417 24.0795 11.6951 23.9318 11.892C23.7879 12.089 23.7159 12.3125 23.7159 12.5625C23.7083 12.7708 23.7519 12.9527 23.8466 13.108C23.9451 13.2633 24.0795 13.3977 24.25 13.5114C24.4205 13.6212 24.6174 13.7178 24.8409 13.8011C25.0644 13.8807 25.303 13.9489 25.5568 14.0057L26.6023 14.2557C27.1098 14.3693 27.5758 14.5208 28 14.7102C28.4242 14.8996 28.7917 15.1326 29.1023 15.4091C29.4129 15.6856 29.6534 16.0114 29.8239 16.3864C29.9981 16.7614 30.0871 17.1913 30.0909 17.6761C30.0871 18.3883 29.9053 19.0057 29.5455 19.5284C29.1894 20.0473 28.6742 20.4508 28 20.7386C27.3295 21.0227 26.5208 21.1648 25.5739 21.1648C24.6345 21.1648 23.8163 21.0208 23.1193 20.733C22.4261 20.4451 21.8845 20.0189 21.4943 19.4545C21.108 18.8864 20.9053 18.1837 20.8864 17.3466H23.267C23.2936 17.7367 23.4053 18.0625 23.6023 18.3239C23.803 18.5814 24.0701 18.7765 24.4034 18.9091C24.7405 19.0379 25.1212 19.1023 25.5455 19.1023C25.9621 19.1023 26.3239 19.0417 26.6307 18.9205C26.9413 18.7992 27.1818 18.6307 27.3523 18.4148C27.5227 18.1989 27.608 17.9508 27.608 17.6705C27.608 17.4091 27.5303 17.1894 27.375 17.0114C27.2235 16.8333 27 16.6818 26.7045 16.5568C26.4129 16.4318 26.0549 16.3182 25.6307 16.2159L24.3636 15.8977C23.3826 15.6591 22.608 15.286 22.0398 14.7784C21.4716 14.2708 21.1894 13.5871 21.1932 12.7273C21.1894 12.0227 21.3769 11.4072 21.7557 10.8807C22.1383 10.3542 22.6629 9.94318 23.3295 9.64773C23.9962 9.35227 24.7538 9.20455 25.6023 9.20455C26.4659 9.20455 27.2197 9.35227 27.8636 9.64773C28.5114 9.94318 29.0152 10.3542 29.375 10.8807C29.7348 11.4072 29.9205 12.017 29.9318 12.7102H27.5739ZM31.0639 9.36364H33.8196L36.473 14.375H36.5866L39.2401 9.36364H41.9957L37.7514 16.8864V21H35.3082V16.8864L31.0639 9.36364ZM52.9034 13.4375H50.4148C50.3693 13.1155 50.2765 12.8295 50.1364 12.5795C49.9962 12.3258 49.8163 12.1098 49.5966 11.9318C49.3769 11.7538 49.1231 11.6174 48.8352 11.5227C48.5511 11.428 48.2424 11.3807 47.9091 11.3807C47.3068 11.3807 46.7822 11.5303 46.3352 11.8295C45.8883 12.125 45.5417 12.5568 45.2955 13.125C45.0492 13.6894 44.9261 14.375 44.9261 15.1818C44.9261 16.0114 45.0492 16.7083 45.2955 17.2727C45.5455 17.8371 45.8939 18.2633 46.3409 18.5511C46.7879 18.839 47.3049 18.983 47.892 18.983C48.2216 18.983 48.5265 18.9394 48.8068 18.8523C49.0909 18.7652 49.3428 18.6383 49.5625 18.4716C49.7822 18.3011 49.964 18.0947 50.108 17.8523C50.2557 17.6098 50.358 17.3333 50.4148 17.0227L52.9034 17.0341C52.839 17.5682 52.678 18.0833 52.4205 18.5795C52.1667 19.072 51.8239 19.5133 51.392 19.9034C50.964 20.2898 50.4527 20.5966 49.858 20.8239C49.267 21.0473 48.5985 21.1591 47.8523 21.1591C46.8144 21.1591 45.8864 20.9242 45.0682 20.4545C44.2538 19.9848 43.6098 19.3049 43.1364 18.4148C42.6667 17.5246 42.4318 16.447 42.4318 15.1818C42.4318 13.9129 42.6705 12.8333 43.1477 11.9432C43.625 11.053 44.2727 10.375 45.0909 9.90909C45.9091 9.43939 46.8295 9.20455 47.8523 9.20455C48.5265 9.20455 49.1515 9.29924 49.7273 9.48864C50.3068 9.67803 50.8201 9.95455 51.267 10.3182C51.714 10.678 52.0777 11.1193 52.358 11.642C52.642 12.1648 52.8239 12.7633 52.9034 13.4375ZM54.6676 21V9.36364H57.1278V14.1648H62.1222V9.36364H64.5767V21H62.1222V16.1932H57.1278V21H54.6676ZM69.0653 9.36364V21H66.6051V9.36364H69.0653ZM81.3565 13.4375H78.8679C78.8224 13.1155 78.7296 12.8295 78.5895 12.5795C78.4493 12.3258 78.2694 12.1098 78.0497 11.9318C77.83 11.7538 77.5762 11.6174 77.2884 11.5227C77.0043 11.428 76.6955 11.3807 76.3622 11.3807C75.7599 11.3807 75.2353 11.5303 74.7884 11.8295C74.3414 12.125 73.9948 12.5568 73.7486 13.125C73.5024 13.6894 73.3793 14.375 73.3793 15.1818C73.3793 16.0114 73.5024 16.7083 73.7486 17.2727C73.9986 17.8371 74.3471 18.2633 74.794 18.5511C75.241 18.839 75.758 18.983 76.3452 18.983C76.6747 18.983 76.9796 18.9394 77.2599 18.8523C77.544 18.7652 77.7959 18.6383 78.0156 18.4716C78.2353 18.3011 78.4171 18.0947 78.5611 17.8523C78.7088 17.6098 78.8111 17.3333 78.8679 17.0227L81.3565 17.0341C81.2921 17.5682 81.1312 18.0833 80.8736 18.5795C80.6198 19.072 80.277 19.5133 79.8452 19.9034C79.4171 20.2898 78.9058 20.5966 78.3111 20.8239C77.7202 21.0473 77.0516 21.1591 76.3054 21.1591C75.2675 21.1591 74.3395 20.9242 73.5213 20.4545C72.7069 19.9848 72.063 19.3049 71.5895 18.4148C71.1198 17.5246 70.8849 16.447 70.8849 15.1818C70.8849 13.9129 71.1236 12.8333 71.6009 11.9432C72.0781 11.053 72.7259 10.375 73.544 9.90909C74.3622 9.43939 75.2827 9.20455 76.3054 9.20455C76.9796 9.20455 77.6046 9.29924 78.1804 9.48864C78.7599 9.67803 79.2732 9.95455 79.7202 10.3182C80.1671 10.678 80.5308 11.1193 80.8111 11.642C81.0952 12.1648 81.277 12.7633 81.3565 13.4375Z" fill="white"/>
</svg>
