<svg width="59" height="31" viewBox="0 0 59 31" fill="none" xmlns="http://www.w3.org/2000/svg">
<rect width="59" height="31" rx="5" fill="#C8B98C"/>
<path d="M7.79648 21V9.36364H12.3874C13.2662 9.36364 14.0162 9.52083 14.6374 9.83523C15.2624 10.1458 15.7378 10.5871 16.0635 11.1591C16.3931 11.7273 16.5578 12.3958 16.5578 13.1648C16.5578 13.9375 16.3912 14.6023 16.0578 15.1591C15.7245 15.7121 15.2416 16.1364 14.609 16.4318C13.9802 16.7273 13.2188 16.875 12.3249 16.875H9.25102V14.8977H11.9272C12.3969 14.8977 12.787 14.8333 13.0976 14.7045C13.4082 14.5758 13.6393 14.3826 13.7908 14.125C13.9461 13.8674 14.0238 13.5473 14.0238 13.1648C14.0238 12.7784 13.9461 12.4527 13.7908 12.1875C13.6393 11.9223 13.4063 11.7216 13.0919 11.5852C12.7813 11.4451 12.3893 11.375 11.9158 11.375H10.2567V21H7.79648ZM14.0806 15.7045L16.9726 21H14.2567L11.4272 15.7045H14.0806ZM28.9897 15.1818C28.9897 16.4508 28.7491 17.5303 28.2681 18.4205C27.7908 19.3106 27.1393 19.9905 26.3135 20.4602C25.4916 20.9261 24.5673 21.1591 23.5408 21.1591C22.5067 21.1591 21.5787 20.9242 20.7567 20.4545C19.9347 19.9848 19.2851 19.3049 18.8078 18.4148C18.3306 17.5246 18.0919 16.447 18.0919 15.1818C18.0919 13.9129 18.3306 12.8333 18.8078 11.9432C19.2851 11.053 19.9347 10.375 20.7567 9.90909C21.5787 9.43939 22.5067 9.20455 23.5408 9.20455C24.5673 9.20455 25.4916 9.43939 26.3135 9.90909C27.1393 10.375 27.7908 11.053 28.2681 11.9432C28.7491 12.8333 28.9897 13.9129 28.9897 15.1818ZM26.4953 15.1818C26.4953 14.3598 26.3722 13.6667 26.126 13.1023C25.8836 12.5379 25.5408 12.1098 25.0976 11.8182C24.6544 11.5265 24.1355 11.3807 23.5408 11.3807C22.9461 11.3807 22.4272 11.5265 21.984 11.8182C21.5408 12.1098 21.1961 12.5379 20.9499 13.1023C20.7075 13.6667 20.5863 14.3598 20.5863 15.1818C20.5863 16.0038 20.7075 16.697 20.9499 17.2614C21.1961 17.8258 21.5408 18.2538 21.984 18.5455C22.4272 18.8371 22.9461 18.983 23.5408 18.983C24.1355 18.983 24.6544 18.8371 25.0976 18.5455C25.5408 18.2538 25.8836 17.8258 26.126 17.2614C26.3722 16.697 26.4953 16.0038 26.4953 15.1818ZM41.0791 13.4375H38.5905C38.5451 13.1155 38.4523 12.8295 38.3121 12.5795C38.172 12.3258 37.992 12.1098 37.7723 11.9318C37.5526 11.7538 37.2988 11.6174 37.011 11.5227C36.7269 11.428 36.4182 11.3807 36.0848 11.3807C35.4826 11.3807 34.9579 11.5303 34.511 11.8295C34.064 12.125 33.7174 12.5568 33.4712 13.125C33.225 13.6894 33.1019 14.375 33.1019 15.1818C33.1019 16.0114 33.225 16.7083 33.4712 17.2727C33.7212 17.8371 34.0697 18.2633 34.5166 18.5511C34.9636 18.839 35.4807 18.983 36.0678 18.983C36.3973 18.983 36.7023 18.9394 36.9826 18.8523C37.2666 18.7652 37.5185 18.6383 37.7382 18.4716C37.9579 18.3011 38.1398 18.0947 38.2837 17.8523C38.4314 17.6098 38.5337 17.3333 38.5905 17.0227L41.0791 17.0341C41.0148 17.5682 40.8538 18.0833 40.5962 18.5795C40.3424 19.072 39.9996 19.5133 39.5678 19.9034C39.1398 20.2898 38.6284 20.5966 38.0337 20.8239C37.4428 21.0473 36.7742 21.1591 36.028 21.1591C34.9901 21.1591 34.0621 20.9242 33.2439 20.4545C32.4295 19.9848 31.7856 19.3049 31.3121 18.4148C30.8424 17.5246 30.6076 16.447 30.6076 15.1818C30.6076 13.9129 30.8462 12.8333 31.3235 11.9432C31.8007 11.053 32.4485 10.375 33.2666 9.90909C34.0848 9.43939 35.0053 9.20455 36.028 9.20455C36.7023 9.20455 37.3273 9.29924 37.903 9.48864C38.4826 9.67803 38.9958 9.95455 39.4428 10.3182C39.8898 10.678 40.2534 11.1193 40.5337 11.642C40.8178 12.1648 40.9996 12.7633 41.0791 13.4375ZM42.8434 21V9.36364H45.3036V14.4943H45.457L49.6445 9.36364H52.5934L48.2752 14.5739L52.6445 21H49.7013L46.5138 16.2159L45.3036 17.6932V21H42.8434Z" fill="white"/>
</svg>
