<svg width="75" height="31" viewBox="0 0 75 31" fill="none" xmlns="http://www.w3.org/2000/svg">
<rect width="75" height="31" rx="5" fill="#559CD9"/>
<path d="M12.6307 21L9.30114 9.36364H11.9886L13.9148 17.4489H14.0114L16.1364 9.36364H18.4375L20.5568 17.4659H20.6591L22.5852 9.36364H25.2727L21.9432 21H19.5455L17.3295 13.392H17.2386L15.0284 21H12.6307ZM27.4233 21H24.7869L28.804 9.36364H31.9744L35.9858 21H33.3494L30.4347 12.0227H30.3438L27.4233 21ZM27.2585 16.4261H33.4858V18.3466H27.2585V16.4261ZM35.5213 11.392V9.36364H45.0781V11.392H41.5156V21H39.0838V11.392H35.5213ZM46.652 21V9.36364H54.4929V11.392H49.1122V14.1648H54.0895V16.1932H49.1122V18.9716H54.5156V21H46.652ZM56.4489 21V9.36364H61.0398C61.9186 9.36364 62.6686 9.52083 63.2898 9.83523C63.9148 10.1458 64.3902 10.5871 64.7159 11.1591C65.0455 11.7273 65.2102 12.3958 65.2102 13.1648C65.2102 13.9375 65.0436 14.6023 64.7102 15.1591C64.3769 15.7121 63.8939 16.1364 63.2614 16.4318C62.6326 16.7273 61.8712 16.875 60.9773 16.875H57.9034V14.8977H60.5795C61.0492 14.8977 61.4394 14.8333 61.75 14.7045C62.0606 14.5758 62.2917 14.3826 62.4432 14.125C62.5985 13.8674 62.6761 13.5473 62.6761 13.1648C62.6761 12.7784 62.5985 12.4527 62.4432 12.1875C62.2917 11.9223 62.0587 11.7216 61.7443 11.5852C61.4337 11.4451 61.0417 11.375 60.5682 11.375H58.9091V21H56.4489ZM62.733 15.7045L65.625 21H62.9091L60.0795 15.7045H62.733Z" fill="white"/>
</svg>
