<svg width="13" height="20" viewBox="0 0 13 20" fill="none" xmlns="http://www.w3.org/2000/svg">
<path d="M0 6.44674C0 6.71368 0.165343 6.94108 0.398731 7.03466C0.471428 7.06412 0.550468 7.08089 0.634165 7.08089H4.4837C4.75381 7.93743 5.55537 8.56062 6.50009 8.56062C7.44482 8.56062 8.24658 7.93743 8.51649 7.08089H12.3658C12.4492 7.08089 12.5284 7.06412 12.6013 7.03466C12.8347 6.94109 13 6.71367 13 6.44674C13 6.17999 12.8347 5.9524 12.6013 5.85882C12.5286 5.82937 12.4495 5.81259 12.3658 5.81259H8.5163C8.24619 4.95606 7.44463 4.33325 6.4999 4.33325C5.55518 4.33325 4.7538 4.95625 4.48351 5.81259H0.634357C0.551032 5.81259 0.47181 5.82937 0.398921 5.85882C0.165724 5.95259 0 6.18001 0 6.44674ZM5.23163 6.44674C5.23163 6.21559 5.29463 5.99936 5.40293 5.81258C5.62215 5.43399 6.03094 5.17842 6.49994 5.17842C6.96894 5.17842 7.37776 5.43399 7.59694 5.81258C7.70487 5.99937 7.76825 6.2156 7.76825 6.44674C7.76825 6.67789 7.70543 6.89413 7.59694 7.08091C7.37772 7.4595 6.96894 7.71507 6.49994 7.71507C6.03094 7.71507 5.62211 7.4595 5.40293 7.08091C5.29482 6.89431 5.23163 6.67808 5.23163 6.44674Z" fill="white"/>
<path d="M5.67732 5.97145C5.59344 6.11648 5.54907 6.28089 5.54907 6.4466C5.54907 6.61251 5.59344 6.77692 5.67714 6.92176C5.84714 7.21554 6.16217 7.39766 6.49994 7.39766C6.83752 7.39766 7.15276 7.21517 7.32274 6.92176C7.40662 6.77692 7.4508 6.61251 7.4508 6.4466C7.4508 6.2807 7.40662 6.11666 7.32255 5.97145C7.15292 5.67804 6.83752 5.49554 6.49994 5.49554C6.16254 5.49554 5.84673 5.67804 5.67732 5.97145ZM5.86559 6.4466C5.86559 6.33495 5.89449 6.22851 5.95134 6.13027C6.06487 5.93435 6.27495 5.81282 6.49975 5.81282C6.72791 5.81282 6.93296 5.93175 7.04816 6.13065C7.10538 6.2287 7.13391 6.33532 7.13391 6.44698C7.13391 6.55902 7.10539 6.66508 7.04816 6.76332C6.93463 6.95924 6.72474 7.08115 6.49975 7.08115C6.27494 7.08115 6.06504 6.95924 5.95115 6.76332C5.89448 6.66471 5.86559 6.55845 5.86559 6.4466Z" fill="white"/>
<path d="M12.195 5.56297C11.9079 5.62765 11.6195 5.44292 11.5553 5.15864L11.5016 4.91967C10.9045 2.6453 8.84821 1.05653 6.50092 1.05653C4.13855 1.05653 2.07892 2.65704 1.49215 4.94539L1.4435 5.16218C1.38794 5.40768 1.17339 5.57955 0.921909 5.57955C0.882577 5.57955 0.842874 5.57508 0.803723 5.56651C0.516096 5.50163 0.334905 5.21457 0.400708 4.92323L0.468934 4.66375C1.18494 1.91794 3.66513 0 6.50084 0C9.33464 0 11.8141 1.91608 12.5318 4.66041L12.5991 4.92343C12.6641 5.21124 12.4826 5.49794 12.1951 5.56298L12.195 5.56297Z" fill="white"/>
<path d="M0.805115 7.20311C1.09163 7.13843 1.3802 7.32316 1.44467 7.60743L1.49835 7.84641C2.09505 10.1208 4.15153 11.7095 6.49901 11.7095C8.86119 11.7095 10.921 10.109 11.5073 7.82069L11.5561 7.60389C11.6115 7.35839 11.8261 7.18652 12.0777 7.18652C12.1171 7.18652 12.1568 7.191 12.1955 7.19957C12.4834 7.26444 12.6645 7.55151 12.5987 7.84285L12.5305 8.10233C11.8145 10.8481 9.33418 12.7661 6.49862 12.7661C3.66481 12.7661 1.18539 10.85 0.467668 8.10567L0.400372 7.84265C0.3355 7.55502 0.516691 7.26833 0.804881 7.20309L0.805115 7.20311Z" fill="white"/>
<path d="M8.24011 17.7709L8.2403 13.6055" stroke="white" stroke-width="0.801708" stroke-miterlimit="10" stroke-linecap="round" stroke-linejoin="round"/>
<path d="M6.73914 19.3561L6.73951 13.9104" stroke="white" stroke-width="0.801708" stroke-miterlimit="10" stroke-linecap="round" stroke-linejoin="round"/>
<path d="M5.31714 15.2707V13.6053" stroke="white" stroke-width="0.801708" stroke-miterlimit="10" stroke-linecap="round" stroke-linejoin="round"/>
</svg>
