<svg width="13" height="16" viewBox="0 0 13 16" fill="none" xmlns="http://www.w3.org/2000/svg">
<path d="M6.71871 2.28058H9.01344C9.17325 2.28058 9.30233 2.15091 9.30233 1.99168C9.30233 1.83187 9.1731 1.70278 9.01344 1.70278L6.71871 1.70264C6.55889 1.70264 6.42981 1.83187 6.42981 1.99154C6.42981 2.15091 6.55904 2.28058 6.71871 2.28058Z" fill="white"/>
<path d="M5.49056 2.24406H5.83459C5.9944 2.24406 6.12349 2.11438 6.12349 1.95516C6.12349 1.79535 5.99426 1.66626 5.83459 1.66626H5.49056C5.33075 1.66626 5.20166 1.79549 5.20166 1.95516C5.20151 2.11468 5.33075 2.24406 5.49056 2.24406Z" fill="white"/>
<path d="M7.25199 12.226C6.74742 12.226 6.33679 12.6366 6.33679 13.1411C6.33679 13.6457 6.74742 14.0561 7.25199 14.0561C7.75671 14.0561 8.16692 13.6458 8.16692 13.1411C8.16692 12.6364 7.7566 12.226 7.25199 12.226ZM7.25199 13.4782C7.06615 13.4782 6.91472 13.3269 6.91472 13.1412C6.91472 12.9553 7.06601 12.8039 7.25199 12.8039C7.43768 12.8039 7.58896 12.9552 7.58896 13.1412C7.58881 13.3267 7.43738 13.4782 7.25199 13.4782Z" fill="white"/>
<path d="M11.6586 0.000267626H2.84464C2.60543 0.000267626 2.41105 0.194335 2.41105 0.433853V4.07969L2.27197 4.00986C2.01674 3.88239 1.73548 3.81491 1.45937 3.81491C0.880543 3.81491 0.374506 4.10836 0.138217 4.58061C-0.222573 5.3028 0.147479 6.22168 0.963007 6.62907L1.30292 6.79888C1.01431 6.99868 0.797033 7.29905 0.718069 7.65747C0.636324 8.02797 0.704102 8.40845 0.908169 8.72822C1.01814 8.90038 1.16281 9.04079 1.32911 9.14931C1.12548 9.34073 0.973316 9.58786 0.910992 9.87323C0.828954 10.2437 0.896878 10.6242 1.10109 10.944C1.17945 11.0665 1.2784 11.1689 1.38646 11.2601C1.17828 11.4525 1.02287 11.7029 0.959198 11.9922C0.87716 12.3632 0.945231 12.7432 1.1493 13.063C1.35395 13.3828 1.67077 13.604 2.04127 13.6856L2.41103 13.7669V14.8827C2.41103 15.0508 2.50762 15.1948 2.64729 15.2667C2.65273 15.2697 2.6595 15.2711 2.66538 15.2735C2.66538 15.2735 10.4899 15.2644 10.4707 15.2335C10.4054 15.1313 10.3045 15.0609 10.1874 15.0353L10.13 15.0225C9.82274 14.9434 9.57238 14.7449 9.41931 14.4854C9.31727 14.313 9.25699 14.1146 9.25611 13.904C9.25508 13.7136 9.30213 13.5327 9.38387 13.372C9.52972 13.0842 9.79126 12.8617 10.1144 12.777L10.1772 12.7628C10.197 12.7584 10.2126 12.7473 10.231 12.7403C10.4066 12.6747 10.5274 12.5139 10.5265 12.3305C10.5274 12.2939 10.5233 12.2563 10.5149 12.2207C10.4793 12.0685 10.3705 11.9515 10.2309 11.9003V8.56571C10.2309 8.32209 10.429 8.12376 10.6731 8.12376C10.9167 8.12376 11.1153 8.3221 11.1153 8.56571V12.7815C11.1153 12.7815 11.1678 14.493 11.1678 14.4965V14.5319C11.0443 14.6082 10.9611 14.7438 10.9611 14.8999C10.9611 15.0561 11.0446 15.1916 11.1678 15.2679C11.2316 15.3073 11.3059 15.331 11.386 15.3326H12.0683V15.0072C12.0698 15.0028 12.0713 14.8069 12.0728 14.4667C12.0833 11.832 12.0922 0.433849 12.0922 0.433849C12.0919 0.194349 11.8979 0 11.6586 0L11.6586 0.000267626ZM1.3508 5.85367C0.969116 5.66313 0.769035 5.25764 0.913713 4.96843C1.00354 4.78892 1.20732 4.68203 1.45946 4.68203C1.60177 4.68203 1.74865 4.71791 1.88435 4.78568L2.41128 5.049V6.38382L1.3508 5.85367ZM1.63911 8.26146C1.55928 8.13693 1.53281 7.98888 1.56472 7.84436C1.62029 7.59207 1.84729 7.40919 2.10474 7.40919C2.14473 7.40919 2.18531 7.41346 2.22486 7.42228L2.41113 7.46359L3.27796 7.65428L3.54157 7.71221C3.68609 7.74396 3.80945 7.83027 3.88913 7.95509C3.96897 8.07947 3.99514 8.22767 3.96338 8.37249C3.89914 8.6633 3.60039 8.85944 3.30341 8.79399L3.27797 8.78826L1.98666 8.50421C1.84229 8.47231 1.7188 8.38628 1.63911 8.26146ZM1.75761 10.06C1.81318 9.80768 2.04004 9.62492 2.29763 9.62492C2.33542 9.62492 2.37335 9.62933 2.41128 9.63741C2.41363 9.63756 2.41569 9.63756 2.41775 9.63786L3.27811 9.82752L3.73446 9.92808C3.87898 9.95984 4.00263 10.0461 4.08202 10.1707C4.16186 10.295 4.18832 10.4432 4.15642 10.5881C4.09232 10.8789 3.79342 11.0753 3.49629 11.0096L3.27811 10.9615L2.41128 10.7708L2.17957 10.7196C2.03505 10.6879 1.91141 10.6016 1.83187 10.4771C1.75189 10.3527 1.72571 10.2043 1.75761 10.06ZM7.11457 8.3676C7.56562 8.3676 7.94817 8.07017 8.07696 7.66144H9.68364C9.48486 7.87888 9.35666 8.1613 9.33549 8.47328C8.93058 9.31411 8.07565 9.87043 7.11442 9.87043C6.10923 9.87043 5.21767 9.25942 4.83896 8.35006C4.85558 8.11291 4.81279 7.87752 4.71311 7.66125H6.1523C6.28123 8.07026 6.66379 8.36756 7.11454 8.36756L7.11457 8.3676ZM6.50943 7.35872C6.50943 7.24845 6.53957 7.14524 6.59103 7.056C6.69571 6.87516 6.89081 6.75328 7.11457 6.75328C7.33834 6.75328 7.53359 6.87516 7.63811 7.056C7.69001 7.1451 7.72015 7.24816 7.72015 7.35872C7.72015 7.46913 7.69001 7.57249 7.63811 7.66159C7.53358 7.84228 7.33833 7.96431 7.11457 7.96431C6.8908 7.96431 6.6957 7.84228 6.59103 7.66159C6.53957 7.57249 6.50943 7.46913 6.50943 7.35872ZM2.41107 12.8794L2.22774 12.8391C2.08322 12.8074 1.95957 12.7211 1.88018 12.5965C1.80034 12.4717 1.77388 12.324 1.80578 12.1791C1.86136 11.927 2.08836 11.7441 2.34581 11.7441C2.36771 11.7441 2.38918 11.7485 2.41138 11.7514C2.42976 11.7533 2.44799 11.7533 2.46622 11.7573L3.27851 11.9362L3.78323 12.0471C3.92775 12.0788 4.05111 12.1651 4.13079 12.2897C4.18152 12.3688 4.20768 12.4574 4.2143 12.5487C4.21783 12.6012 4.21665 12.6543 4.20474 12.7071C4.14064 12.9982 3.84219 13.1943 3.54462 13.129L3.27822 13.0704V13.0282C3.26572 13.0395 3.25308 13.0501 3.24087 13.0621L2.41107 12.8794ZM8.93856 12.4719C8.6973 12.7225 8.52293 13.0309 8.43252 13.3722C8.38636 13.5448 8.35622 13.7233 8.35725 13.9087C8.35813 14.0959 8.39077 14.2758 8.44032 14.4493H3.27794V13.9578L3.35777 13.9754C3.44334 13.9944 3.53023 14.0035 3.61683 14.0062C3.63285 14.0068 3.64858 14.0087 3.66446 14.0087C4.14419 14.0087 4.58071 13.7598 4.83977 13.3771C4.93739 13.2325 5.01193 13.0707 5.05119 12.8934C5.07942 12.7656 5.08324 12.6375 5.07648 12.5102C5.06369 12.2685 4.99488 12.0322 4.86079 11.8227C4.78243 11.7002 4.68378 11.5976 4.57543 11.5063C4.78361 11.3142 4.93901 11.0635 5.00269 10.7742C5.08473 10.4037 5.0168 10.0232 4.81259 9.70341C4.70262 9.53124 4.55795 9.39084 4.39195 9.28232C4.47737 9.20204 4.55103 9.10971 4.61557 9.01092C5.15277 9.84305 6.08374 10.3748 7.11422 10.3748C7.98222 10.3748 8.77923 9.99668 9.33073 9.38067V12.1529C9.18606 12.2433 9.05551 12.3505 8.93863 12.4718L8.93856 12.4719ZM11.2249 7.34976C11.0561 7.27155 10.8709 7.22332 10.6728 7.22332C10.5096 7.22332 10.3535 7.25405 10.209 7.30757C10.1906 7.20318 10.1224 7.11659 10.0267 7.07821C9.99183 7.06424 9.95419 7.0563 9.91435 7.0563H8.07703C7.94824 6.64745 7.56554 6.35 7.11464 6.35C6.66385 6.35 6.2813 6.64742 6.15224 7.0563H4.31493C4.27699 7.0563 4.24112 7.06395 4.20789 7.07674C4.06366 6.97853 3.90356 6.90429 3.72801 6.86591L3.27798 6.76682V4.51297L3.27813 0.867575H11.2253V7.3499L11.2249 7.34976Z" fill="white"/>
<path d="M7.11461 7.81258C7.27559 7.81258 7.42629 7.72554 7.50732 7.58543C7.5476 7.51633 7.56848 7.43782 7.56848 7.35858C7.56848 7.27948 7.5476 7.20097 7.50732 7.13172C7.42631 6.99161 7.27546 6.90472 7.11461 6.90472C6.95377 6.90472 6.80307 6.99176 6.7222 7.13172C6.68221 7.20112 6.66089 7.27948 6.66089 7.35858C6.66089 7.43782 6.68221 7.51619 6.72205 7.58543C6.80335 7.72554 6.9536 7.81258 7.11461 7.81258ZM6.85305 7.20744C6.90716 7.11408 7.00758 7.05587 7.11461 7.05587C7.22355 7.05587 7.32161 7.11262 7.37645 7.20759C7.40365 7.25434 7.41718 7.30521 7.41718 7.35843C7.41718 7.4118 7.40365 7.46253 7.37645 7.50957C7.32205 7.60323 7.22222 7.6613 7.11461 7.6613C7.00757 7.6613 6.90716 7.60308 6.85276 7.50957C6.82571 7.46253 6.81204 7.41195 6.81204 7.35843C6.81218 7.30521 6.82586 7.25449 6.85305 7.20744Z" fill="white"/>
<path d="M4.39642 6.9382C4.41524 6.94246 4.43391 6.94452 4.45287 6.94452C4.57299 6.94452 4.67517 6.86248 4.70208 6.7453L4.72531 6.6421C5.00494 5.54974 5.98808 4.78611 7.1159 4.78611C8.23622 4.78611 9.21788 5.54432 9.50265 6.6299L9.52808 6.74414C9.55881 6.87984 9.69642 6.9679 9.83345 6.93718C9.97062 6.90616 10.0572 6.76943 10.0263 6.63181L9.99429 6.50626C9.65158 5.19658 8.46835 4.2818 7.11576 4.2818C5.76198 4.2818 4.57831 5.19715 4.23679 6.50773L4.20415 6.63167C4.17254 6.77031 4.25899 6.90733 4.39646 6.93821L4.39642 6.9382Z" fill="white"/>
</svg>
